solid OpenSCAD_Model
  facet normal 0.998795 0.0490684 0
    outer loop
      vertex 4 0 9.5
      vertex 3.98074 0.392068 -9.5
      vertex 3.98074 0.392068 9.5
    endloop
  endfacet
  facet normal 0.998795 0.0490684 0
    outer loop
      vertex 3.98074 0.392068 -9.5
      vertex 4 0 9.5
      vertex 4 0 -9.5
    endloop
  endfacet
  facet normal -0.998795 0.0490684 0
    outer loop
      vertex -4 0 -9.5
      vertex -3.98074 0.392068 9.5
      vertex -3.98074 0.392068 -9.5
    endloop
  endfacet
  facet normal -0.998795 0.0490684 0
    outer loop
      vertex -3.98074 0.392068 9.5
      vertex -4 0 -9.5
      vertex -4 0 9.5
    endloop
  endfacet
  facet normal 0.0490684 0.998795 -0
    outer loop
      vertex 0.392068 3.98074 -3.5
      vertex 0 4 3.5
      vertex 0.392068 3.98074 3.5
    endloop
  endfacet
  facet normal 0.0490684 0.998795 0
    outer loop
      vertex 0 4 3.5
      vertex 0.392068 3.98074 -3.5
      vertex 0 4 -3.5
    endloop
  endfacet
  facet normal -0.0490684 -0.998795 0
    outer loop
      vertex -0.392068 -3.98074 -9.5
      vertex 0 -4 9.5
      vertex -0.392068 -3.98074 9.5
    endloop
  endfacet
  facet normal -0.0490684 -0.998795 -0
    outer loop
      vertex 0 -4 9.5
      vertex -0.392068 -3.98074 -9.5
      vertex 0 -4 -9.5
    endloop
  endfacet
  facet normal -0.740951 -0.67156 0
    outer loop
      vertex -2.82843 -2.82843 -9.5
      vertex -3.09204 -2.53757 9.5
      vertex -3.09204 -2.53757 -9.5
    endloop
  endfacet
  facet normal -0.740951 -0.67156 0
    outer loop
      vertex -3.09204 -2.53757 9.5
      vertex -2.82843 -2.82843 -9.5
      vertex -2.82843 -2.82843 9.5
    endloop
  endfacet
  facet normal 0.67156 0.740951 -0
    outer loop
      vertex 2.82843 2.82843 -3.5
      vertex 2.53757 3.09204 3.5
      vertex 2.82843 2.82843 3.5
    endloop
  endfacet
  facet normal 0.67156 0.740951 0
    outer loop
      vertex 2.53757 3.09204 3.5
      vertex 2.82843 2.82843 -3.5
      vertex 2.53757 3.09204 -3.5
    endloop
  endfacet
  facet normal -0.67156 0.740951 0
    outer loop
      vertex -2.53757 3.09204 -3.5
      vertex -2.82843 2.82843 3.5
      vertex -2.53757 3.09204 3.5
    endloop
  endfacet
  facet normal -0.67156 0.740951 0
    outer loop
      vertex -2.82843 2.82843 3.5
      vertex -2.53757 3.09204 -3.5
      vertex -2.82843 2.82843 -3.5
    endloop
  endfacet
  facet normal -0.33689 0.941544 0
    outer loop
      vertex -1.16114 3.82776 -3.5
      vertex -1.53073 3.69552 3.5
      vertex -1.16114 3.82776 3.5
    endloop
  endfacet
  facet normal -0.33689 0.941544 0
    outer loop
      vertex -1.53073 3.69552 3.5
      vertex -1.16114 3.82776 -3.5
      vertex -1.53073 3.69552 -3.5
    endloop
  endfacet
  facet normal -0.941544 -0.33689 0
    outer loop
      vertex -3.69552 -1.53073 -9.5
      vertex -3.82776 -1.16114 9.5
      vertex -3.82776 -1.16114 -9.5
    endloop
  endfacet
  facet normal -0.941544 -0.33689 0
    outer loop
      vertex -3.82776 -1.16114 9.5
      vertex -3.69552 -1.53073 -9.5
      vertex -3.69552 -1.53073 9.5
    endloop
  endfacet
  facet normal 0.903989 0.427555 0
    outer loop
      vertex 3.69552 1.53073 3.5
      vertex 3.52768 1.88559 -3.5
      vertex 3.52768 1.88559 3.5
    endloop
  endfacet
  facet normal 0.903989 0.427555 0
    outer loop
      vertex 3.52768 1.88559 -3.5
      vertex 3.69552 1.53073 3.5
      vertex 3.69552 1.53073 -3.5
    endloop
  endfacet
  facet normal 0.427555 0.903989 -0
    outer loop
      vertex 1.88559 3.52768 -3.5
      vertex 1.53073 3.69552 3.5
      vertex 1.88559 3.52768 3.5
    endloop
  endfacet
  facet normal 0.427555 0.903989 0
    outer loop
      vertex 1.53073 3.69552 3.5
      vertex 1.88559 3.52768 -3.5
      vertex 1.53073 3.69552 -3.5
    endloop
  endfacet
  facet normal 0.5957 0.803207 -0
    outer loop
      vertex 2.53757 3.09204 -3.5
      vertex 2.22228 3.32588 3.5
      vertex 2.53757 3.09204 3.5
    endloop
  endfacet
  facet normal 0.5957 0.803207 0
    outer loop
      vertex 2.22228 3.32588 3.5
      vertex 2.53757 3.09204 -3.5
      vertex 2.22228 3.32588 -3.5
    endloop
  endfacet
  facet normal -0.903989 0.427555 0
    outer loop
      vertex -3.69552 1.53073 -3.5
      vertex -3.52768 1.88559 3.5
      vertex -3.52768 1.88559 -3.5
    endloop
  endfacet
  facet normal -0.903989 0.427555 0
    outer loop
      vertex -3.52768 1.88559 3.5
      vertex -3.69552 1.53073 -3.5
      vertex -3.69552 1.53073 3.5
    endloop
  endfacet
  facet normal -0.146731 0.989176 0
    outer loop
      vertex -0.392068 3.98074 -3.5
      vertex -0.780361 3.92314 3.5
      vertex -0.392068 3.98074 3.5
    endloop
  endfacet
  facet normal -0.146731 0.989176 0
    outer loop
      vertex -0.780361 3.92314 3.5
      vertex -0.392068 3.98074 -3.5
      vertex -0.780361 3.92314 -3.5
    endloop
  endfacet
  facet normal 0.941544 -0.33689 0
    outer loop
      vertex 3.69552 -1.53073 9.5
      vertex 3.82776 -1.16114 -9.5
      vertex 3.82776 -1.16114 9.5
    endloop
  endfacet
  facet normal 0.941544 -0.33689 0
    outer loop
      vertex 3.82776 -1.16114 -9.5
      vertex 3.69552 -1.53073 9.5
      vertex 3.69552 -1.53073 -9.5
    endloop
  endfacet
  facet normal 0 0 -1
    outer loop
      vertex 3.98074 -0.392068 -9.5
      vertex 3.98074 0.392068 -9.5
      vertex 4 0 -9.5
    endloop
  endfacet
  facet normal 0 0 -1
    outer loop
      vertex 3.92314 -0.780361 -9.5
      vertex 3.98074 0.392068 -9.5
      vertex 3.98074 -0.392068 -9.5
    endloop
  endfacet
  facet normal 0 0 -1
    outer loop
      vertex 3.86812 1 -9.5
      vertex 3.98074 0.392068 -9.5
      vertex 3.92314 -0.780361 -9.5
    endloop
  endfacet
  facet normal 0 0 -1
    outer loop
      vertex 3.98074 0.392068 -9.5
      vertex 3.86812 1 -9.5
      vertex 3.92314 0.780361 -9.5
    endloop
  endfacet
  facet normal 0 0 -1
    outer loop
      vertex 3.82776 -1.16114 -9.5
      vertex 3.86812 1 -9.5
      vertex 3.92314 -0.780361 -9.5
    endloop
  endfacet
  facet normal 0 0 -1
    outer loop
      vertex 3.69552 -1.53073 -9.5
      vertex 3.86812 1 -9.5
      vertex 3.82776 -1.16114 -9.5
    endloop
  endfacet
  facet normal 0 0 -1
    outer loop
      vertex 3.52768 -1.88559 -9.5
      vertex 3.86812 1 -9.5
      vertex 3.69552 -1.53073 -9.5
    endloop
  endfacet
  facet normal 0 0 -1
    outer loop
      vertex 3.32588 -2.22228 -9.5
      vertex 3.86812 1 -9.5
      vertex 3.52768 -1.88559 -9.5
    endloop
  endfacet
  facet normal 0 0 -1
    outer loop
      vertex 3.09204 -2.53757 -9.5
      vertex 3.86812 1 -9.5
      vertex 3.32588 -2.22228 -9.5
    endloop
  endfacet
  facet normal 0 0 -1
    outer loop
      vertex 2.82843 -2.82843 -9.5
      vertex 3.86812 1 -9.5
      vertex 3.09204 -2.53757 -9.5
    endloop
  endfacet
  facet normal 0 0 -1
    outer loop
      vertex 2.53757 -3.09204 -9.5
      vertex 3.86812 1 -9.5
      vertex 2.82843 -2.82843 -9.5
    endloop
  endfacet
  facet normal 0 0 -1
    outer loop
      vertex 2.22228 -3.32588 -9.5
      vertex 3.86812 1 -9.5
      vertex 2.53757 -3.09204 -9.5
    endloop
  endfacet
  facet normal 0 0 -1
    outer loop
      vertex 1.88559 -3.52768 -9.5
      vertex 3.86812 1 -9.5
      vertex 2.22228 -3.32588 -9.5
    endloop
  endfacet
  facet normal 0 0 -1
    outer loop
      vertex 1.53073 -3.69552 -9.5
      vertex 3.86812 1 -9.5
      vertex 1.88559 -3.52768 -9.5
    endloop
  endfacet
  facet normal 0 0 -1
    outer loop
      vertex 1.16114 -3.82776 -9.5
      vertex 3.86812 1 -9.5
      vertex 1.53073 -3.69552 -9.5
    endloop
  endfacet
  facet normal 0 0 -1
    outer loop
      vertex 0.780361 -3.92314 -9.5
      vertex 3.86812 1 -9.5
      vertex 1.16114 -3.82776 -9.5
    endloop
  endfacet
  facet normal 0 0 -1
    outer loop
      vertex 0.392068 -3.98074 -9.5
      vertex 3.86812 1 -9.5
      vertex 0.780361 -3.92314 -9.5
    endloop
  endfacet
  facet normal 0 0 -1
    outer loop
      vertex 0 -4 -9.5
      vertex 3.86812 1 -9.5
      vertex 0.392068 -3.98074 -9.5
    endloop
  endfacet
  facet normal 0 0 -1
    outer loop
      vertex -0.392068 -3.98074 -9.5
      vertex 3.86812 1 -9.5
      vertex 0 -4 -9.5
    endloop
  endfacet
  facet normal 0 0 -1
    outer loop
      vertex -0.780361 -3.92314 -9.5
      vertex 3.86812 1 -9.5
      vertex -0.392068 -3.98074 -9.5
    endloop
  endfacet
  facet normal 0 0 -1
    outer loop
      vertex -1.16114 -3.82776 -9.5
      vertex 3.86812 1 -9.5
      vertex -0.780361 -3.92314 -9.5
    endloop
  endfacet
  facet normal 0 0 -1
    outer loop
      vertex -1.53073 -3.69552 -9.5
      vertex 3.86812 1 -9.5
      vertex -1.16114 -3.82776 -9.5
    endloop
  endfacet
  facet normal 0 0 -1
    outer loop
      vertex -1.88559 -3.52768 -9.5
      vertex 3.86812 1 -9.5
      vertex -1.53073 -3.69552 -9.5
    endloop
  endfacet
  facet normal 0 0 -1
    outer loop
      vertex -2.22228 -3.32588 -9.5
      vertex 3.86812 1 -9.5
      vertex -1.88559 -3.52768 -9.5
    endloop
  endfacet
  facet normal 0 0 -1
    outer loop
      vertex -2.53757 -3.09204 -9.5
      vertex 3.86812 1 -9.5
      vertex -2.22228 -3.32588 -9.5
    endloop
  endfacet
  facet normal 0 0 -1
    outer loop
      vertex -2.82843 -2.82843 -9.5
      vertex 3.86812 1 -9.5
      vertex -2.53757 -3.09204 -9.5
    endloop
  endfacet
  facet normal 0 0 -1
    outer loop
      vertex -3.09204 -2.53757 -9.5
      vertex 3.86812 1 -9.5
      vertex -2.82843 -2.82843 -9.5
    endloop
  endfacet
  facet normal 0 0 -1
    outer loop
      vertex -3.32588 -2.22228 -9.5
      vertex 3.86812 1 -9.5
      vertex -3.09204 -2.53757 -9.5
    endloop
  endfacet
  facet normal 0 0 -1
    outer loop
      vertex -3.52768 -1.88559 -9.5
      vertex 3.86812 1 -9.5
      vertex -3.32588 -2.22228 -9.5
    endloop
  endfacet
  facet normal 0 0 -1
    outer loop
      vertex -3.69552 -1.53073 -9.5
      vertex 3.86812 1 -9.5
      vertex -3.52768 -1.88559 -9.5
    endloop
  endfacet
  facet normal 0 0 -1
    outer loop
      vertex -3.82776 -1.16114 -9.5
      vertex 3.86812 1 -9.5
      vertex -3.69552 -1.53073 -9.5
    endloop
  endfacet
  facet normal 0 0 -1
    outer loop
      vertex -3.82776 -1.16114 -9.5
      vertex -3.86812 1 -9.5
      vertex 3.86812 1 -9.5
    endloop
  endfacet
  facet normal 0 0 -1
    outer loop
      vertex -3.92314 -0.780361 -9.5
      vertex -3.86812 1 -9.5
      vertex -3.82776 -1.16114 -9.5
    endloop
  endfacet
  facet normal 0 0 -1
    outer loop
      vertex -3.98074 -0.392068 -9.5
      vertex -3.86812 1 -9.5
      vertex -3.92314 -0.780361 -9.5
    endloop
  endfacet
  facet normal 0 0 -1
    outer loop
      vertex -3.98074 0.392068 -9.5
      vertex -3.86812 1 -9.5
      vertex -3.98074 -0.392068 -9.5
    endloop
  endfacet
  facet normal 0 0 -1
    outer loop
      vertex -3.86812 1 -9.5
      vertex -3.98074 0.392068 -9.5
      vertex -3.92314 0.780361 -9.5
    endloop
  endfacet
  facet normal 0 -0 -1
    outer loop
      vertex -3.98074 0.392068 -9.5
      vertex -3.98074 -0.392068 -9.5
      vertex -4 0 -9.5
    endloop
  endfacet
  facet normal 0.970031 0.242981 0
    outer loop
      vertex 3.92314 0.780361 9.5
      vertex 3.86812 1 3.5
      vertex 3.86812 1 9.5
    endloop
  endfacet
  facet normal 0.970031 0.242981 0
    outer loop
      vertex 3.86812 1 3.5
      vertex 3.92314 0.780361 9.5
      vertex 3.86812 1 -3.5
    endloop
  endfacet
  facet normal 0.970031 0.242981 -0
    outer loop
      vertex 3.92314 0.780361 -9.5
      vertex 3.86812 1 -3.5
      vertex 3.92314 0.780361 9.5
    endloop
  endfacet
  facet normal 0.970031 0.242981 0
    outer loop
      vertex 3.86812 1 -3.5
      vertex 3.92314 0.780361 -9.5
      vertex 3.86812 1 -9.5
    endloop
  endfacet
  facet normal 0.970031 0.24298 0
    outer loop
      vertex 3.86812 1 3.5
      vertex 3.82776 1.16114 -3.5
      vertex 3.82776 1.16114 3.5
    endloop
  endfacet
  facet normal 0.970031 0.24298 0
    outer loop
      vertex 3.82776 1.16114 -3.5
      vertex 3.86812 1 3.5
      vertex 3.86812 1 -3.5
    endloop
  endfacet
  facet normal 0.989176 0.146731 0
    outer loop
      vertex 3.98074 0.392068 9.5
      vertex 3.92314 0.780361 -9.5
      vertex 3.92314 0.780361 9.5
    endloop
  endfacet
  facet normal 0.989176 0.146731 0
    outer loop
      vertex 3.92314 0.780361 -9.5
      vertex 3.98074 0.392068 9.5
      vertex 3.98074 0.392068 -9.5
    endloop
  endfacet
  facet normal 0.941544 0.33689 0
    outer loop
      vertex 3.82776 1.16114 3.5
      vertex 3.69552 1.53073 -3.5
      vertex 3.69552 1.53073 3.5
    endloop
  endfacet
  facet normal 0.941544 0.33689 0
    outer loop
      vertex 3.69552 1.53073 -3.5
      vertex 3.82776 1.16114 3.5
      vertex 3.82776 1.16114 -3.5
    endloop
  endfacet
  facet normal 0.803207 0.5957 0
    outer loop
      vertex 3.32588 2.22228 3.5
      vertex 3.09204 2.53757 -3.5
      vertex 3.09204 2.53757 3.5
    endloop
  endfacet
  facet normal 0.803207 0.5957 0
    outer loop
      vertex 3.09204 2.53757 -3.5
      vertex 3.32588 2.22228 3.5
      vertex 3.32588 2.22228 -3.5
    endloop
  endfacet
  facet normal 0.740951 0.67156 0
    outer loop
      vertex 3.09204 2.53757 3.5
      vertex 2.82843 2.82843 -3.5
      vertex 2.82843 2.82843 3.5
    endloop
  endfacet
  facet normal 0.740951 0.67156 0
    outer loop
      vertex 2.82843 2.82843 -3.5
      vertex 3.09204 2.53757 3.5
      vertex 3.09204 2.53757 -3.5
    endloop
  endfacet
  facet normal 0.857729 0.514102 0
    outer loop
      vertex 3.52768 1.88559 3.5
      vertex 3.32588 2.22228 -3.5
      vertex 3.32588 2.22228 3.5
    endloop
  endfacet
  facet normal 0.857729 0.514102 0
    outer loop
      vertex 3.32588 2.22228 -3.5
      vertex 3.52768 1.88559 3.5
      vertex 3.52768 1.88559 -3.5
    endloop
  endfacet
  facet normal 0.24298 0.970031 -0
    outer loop
      vertex 1.16114 3.82776 -3.5
      vertex 0.780361 3.92314 3.5
      vertex 1.16114 3.82776 3.5
    endloop
  endfacet
  facet normal 0.24298 0.970031 0
    outer loop
      vertex 0.780361 3.92314 3.5
      vertex 1.16114 3.82776 -3.5
      vertex 0.780361 3.92314 -3.5
    endloop
  endfacet
  facet normal 0.33689 0.941544 -0
    outer loop
      vertex 1.53073 3.69552 -3.5
      vertex 1.16114 3.82776 3.5
      vertex 1.53073 3.69552 3.5
    endloop
  endfacet
  facet normal 0.33689 0.941544 0
    outer loop
      vertex 1.16114 3.82776 3.5
      vertex 1.53073 3.69552 -3.5
      vertex 1.16114 3.82776 -3.5
    endloop
  endfacet
  facet normal 0.146731 0.989176 -0
    outer loop
      vertex 0.780361 3.92314 -3.5
      vertex 0.392068 3.98074 3.5
      vertex 0.780361 3.92314 3.5
    endloop
  endfacet
  facet normal 0.146731 0.989176 0
    outer loop
      vertex 0.392068 3.98074 3.5
      vertex 0.780361 3.92314 -3.5
      vertex 0.392068 3.98074 -3.5
    endloop
  endfacet
  facet normal 0.514102 0.857729 -0
    outer loop
      vertex 2.22228 3.32588 -3.5
      vertex 1.88559 3.52768 3.5
      vertex 2.22228 3.32588 3.5
    endloop
  endfacet
  facet normal 0.514102 0.857729 0
    outer loop
      vertex 1.88559 3.52768 3.5
      vertex 2.22228 3.32588 -3.5
      vertex 1.88559 3.52768 -3.5
    endloop
  endfacet
  facet normal -0.970031 0.242981 0
    outer loop
      vertex -3.92314 0.780361 -9.5
      vertex -3.86812 1 -3.5
      vertex -3.86812 1 -9.5
    endloop
  endfacet
  facet normal -0.970031 0.242981 0
    outer loop
      vertex -3.86812 1 -3.5
      vertex -3.92314 0.780361 -9.5
      vertex -3.86812 1 3.5
    endloop
  endfacet
  facet normal -0.970031 0.242981 0
    outer loop
      vertex -3.92314 0.780361 9.5
      vertex -3.86812 1 3.5
      vertex -3.92314 0.780361 -9.5
    endloop
  endfacet
  facet normal -0.970031 0.242981 0
    outer loop
      vertex -3.86812 1 3.5
      vertex -3.92314 0.780361 9.5
      vertex -3.86812 1 9.5
    endloop
  endfacet
  facet normal -0.970031 0.24298 0
    outer loop
      vertex -3.86812 1 -3.5
      vertex -3.82776 1.16114 3.5
      vertex -3.82776 1.16114 -3.5
    endloop
  endfacet
  facet normal -0.970031 0.24298 0
    outer loop
      vertex -3.82776 1.16114 3.5
      vertex -3.86812 1 -3.5
      vertex -3.86812 1 3.5
    endloop
  endfacet
  facet normal -0.803207 0.5957 0
    outer loop
      vertex -3.32588 2.22228 -3.5
      vertex -3.09204 2.53757 3.5
      vertex -3.09204 2.53757 -3.5
    endloop
  endfacet
  facet normal -0.803207 0.5957 0
    outer loop
      vertex -3.09204 2.53757 3.5
      vertex -3.32588 2.22228 -3.5
      vertex -3.32588 2.22228 3.5
    endloop
  endfacet
  facet normal -0.740951 0.67156 0
    outer loop
      vertex -3.09204 2.53757 -3.5
      vertex -2.82843 2.82843 3.5
      vertex -2.82843 2.82843 -3.5
    endloop
  endfacet
  facet normal -0.740951 0.67156 0
    outer loop
      vertex -2.82843 2.82843 3.5
      vertex -3.09204 2.53757 -3.5
      vertex -3.09204 2.53757 3.5
    endloop
  endfacet
  facet normal -0.857729 0.514102 0
    outer loop
      vertex -3.52768 1.88559 -3.5
      vertex -3.32588 2.22228 3.5
      vertex -3.32588 2.22228 -3.5
    endloop
  endfacet
  facet normal -0.857729 0.514102 0
    outer loop
      vertex -3.32588 2.22228 3.5
      vertex -3.52768 1.88559 -3.5
      vertex -3.52768 1.88559 3.5
    endloop
  endfacet
  facet normal -0.941544 0.33689 0
    outer loop
      vertex -3.82776 1.16114 -3.5
      vertex -3.69552 1.53073 3.5
      vertex -3.69552 1.53073 -3.5
    endloop
  endfacet
  facet normal -0.941544 0.33689 0
    outer loop
      vertex -3.69552 1.53073 3.5
      vertex -3.82776 1.16114 -3.5
      vertex -3.82776 1.16114 3.5
    endloop
  endfacet
  facet normal -0.989176 0.146731 0
    outer loop
      vertex -3.98074 0.392068 -9.5
      vertex -3.92314 0.780361 9.5
      vertex -3.92314 0.780361 -9.5
    endloop
  endfacet
  facet normal -0.989176 0.146731 0
    outer loop
      vertex -3.92314 0.780361 9.5
      vertex -3.98074 0.392068 -9.5
      vertex -3.98074 0.392068 9.5
    endloop
  endfacet
  facet normal 0 0 1
    outer loop
      vertex 3.98074 0.392068 9.5
      vertex 3.98074 -0.392068 9.5
      vertex 4 0 9.5
    endloop
  endfacet
  facet normal 0 0 1
    outer loop
      vertex 3.86812 1 9.5
      vertex 3.98074 0.392068 9.5
      vertex 3.92314 0.780361 9.5
    endloop
  endfacet
  facet normal 0 0 1
    outer loop
      vertex 3.98074 0.392068 9.5
      vertex 3.86812 1 9.5
      vertex 3.98074 -0.392068 9.5
    endloop
  endfacet
  facet normal 0 0 1
    outer loop
      vertex 3.98074 -0.392068 9.5
      vertex 3.86812 1 9.5
      vertex 3.92314 -0.780361 9.5
    endloop
  endfacet
  facet normal 0 0 1
    outer loop
      vertex 3.86812 1 9.5
      vertex 3.82776 -1.16114 9.5
      vertex 3.92314 -0.780361 9.5
    endloop
  endfacet
  facet normal 0 0 1
    outer loop
      vertex 3.86812 1 9.5
      vertex 3.69552 -1.53073 9.5
      vertex 3.82776 -1.16114 9.5
    endloop
  endfacet
  facet normal 0 0 1
    outer loop
      vertex 3.86812 1 9.5
      vertex 3.52768 -1.88559 9.5
      vertex 3.69552 -1.53073 9.5
    endloop
  endfacet
  facet normal 0 0 1
    outer loop
      vertex 3.86812 1 9.5
      vertex 3.32588 -2.22228 9.5
      vertex 3.52768 -1.88559 9.5
    endloop
  endfacet
  facet normal 0 0 1
    outer loop
      vertex 3.86812 1 9.5
      vertex 3.09204 -2.53757 9.5
      vertex 3.32588 -2.22228 9.5
    endloop
  endfacet
  facet normal 0 0 1
    outer loop
      vertex 3.86812 1 9.5
      vertex 2.82843 -2.82843 9.5
      vertex 3.09204 -2.53757 9.5
    endloop
  endfacet
  facet normal 0 0 1
    outer loop
      vertex 3.86812 1 9.5
      vertex 2.53757 -3.09204 9.5
      vertex 2.82843 -2.82843 9.5
    endloop
  endfacet
  facet normal 0 0 1
    outer loop
      vertex 3.86812 1 9.5
      vertex 2.22228 -3.32588 9.5
      vertex 2.53757 -3.09204 9.5
    endloop
  endfacet
  facet normal 0 0 1
    outer loop
      vertex 3.86812 1 9.5
      vertex 1.88559 -3.52768 9.5
      vertex 2.22228 -3.32588 9.5
    endloop
  endfacet
  facet normal 0 0 1
    outer loop
      vertex 3.86812 1 9.5
      vertex 1.53073 -3.69552 9.5
      vertex 1.88559 -3.52768 9.5
    endloop
  endfacet
  facet normal 0 0 1
    outer loop
      vertex 3.86812 1 9.5
      vertex 1.16114 -3.82776 9.5
      vertex 1.53073 -3.69552 9.5
    endloop
  endfacet
  facet normal 0 0 1
    outer loop
      vertex 3.86812 1 9.5
      vertex 0.780361 -3.92314 9.5
      vertex 1.16114 -3.82776 9.5
    endloop
  endfacet
  facet normal 0 0 1
    outer loop
      vertex 3.86812 1 9.5
      vertex 0.392068 -3.98074 9.5
      vertex 0.780361 -3.92314 9.5
    endloop
  endfacet
  facet normal 0 0 1
    outer loop
      vertex 3.86812 1 9.5
      vertex 0 -4 9.5
      vertex 0.392068 -3.98074 9.5
    endloop
  endfacet
  facet normal 0 0 1
    outer loop
      vertex 3.86812 1 9.5
      vertex -0.392068 -3.98074 9.5
      vertex 0 -4 9.5
    endloop
  endfacet
  facet normal 0 0 1
    outer loop
      vertex 3.86812 1 9.5
      vertex -0.780361 -3.92314 9.5
      vertex -0.392068 -3.98074 9.5
    endloop
  endfacet
  facet normal 0 0 1
    outer loop
      vertex 3.86812 1 9.5
      vertex -1.16114 -3.82776 9.5
      vertex -0.780361 -3.92314 9.5
    endloop
  endfacet
  facet normal 0 0 1
    outer loop
      vertex 3.86812 1 9.5
      vertex -1.53073 -3.69552 9.5
      vertex -1.16114 -3.82776 9.5
    endloop
  endfacet
  facet normal 0 0 1
    outer loop
      vertex 3.86812 1 9.5
      vertex -1.88559 -3.52768 9.5
      vertex -1.53073 -3.69552 9.5
    endloop
  endfacet
  facet normal 0 0 1
    outer loop
      vertex 3.86812 1 9.5
      vertex -2.22228 -3.32588 9.5
      vertex -1.88559 -3.52768 9.5
    endloop
  endfacet
  facet normal 0 0 1
    outer loop
      vertex 3.86812 1 9.5
      vertex -2.53757 -3.09204 9.5
      vertex -2.22228 -3.32588 9.5
    endloop
  endfacet
  facet normal 0 0 1
    outer loop
      vertex 3.86812 1 9.5
      vertex -2.82843 -2.82843 9.5
      vertex -2.53757 -3.09204 9.5
    endloop
  endfacet
  facet normal 0 0 1
    outer loop
      vertex 3.86812 1 9.5
      vertex -3.09204 -2.53757 9.5
      vertex -2.82843 -2.82843 9.5
    endloop
  endfacet
  facet normal 0 0 1
    outer loop
      vertex 3.86812 1 9.5
      vertex -3.32588 -2.22228 9.5
      vertex -3.09204 -2.53757 9.5
    endloop
  endfacet
  facet normal 0 0 1
    outer loop
      vertex 3.86812 1 9.5
      vertex -3.52768 -1.88559 9.5
      vertex -3.32588 -2.22228 9.5
    endloop
  endfacet
  facet normal 0 0 1
    outer loop
      vertex 3.86812 1 9.5
      vertex -3.69552 -1.53073 9.5
      vertex -3.52768 -1.88559 9.5
    endloop
  endfacet
  facet normal 0 0 1
    outer loop
      vertex 3.86812 1 9.5
      vertex -3.82776 -1.16114 9.5
      vertex -3.69552 -1.53073 9.5
    endloop
  endfacet
  facet normal -0 0 1
    outer loop
      vertex -3.86812 1 9.5
      vertex -3.82776 -1.16114 9.5
      vertex 3.86812 1 9.5
    endloop
  endfacet
  facet normal 0 0 1
    outer loop
      vertex -3.98074 0.392068 9.5
      vertex -3.86812 1 9.5
      vertex -3.92314 0.780361 9.5
    endloop
  endfacet
  facet normal 0 0 1
    outer loop
      vertex -3.86812 1 9.5
      vertex -3.92314 -0.780361 9.5
      vertex -3.82776 -1.16114 9.5
    endloop
  endfacet
  facet normal 0 0 1
    outer loop
      vertex -3.86812 1 9.5
      vertex -3.98074 0.392068 9.5
      vertex -3.92314 -0.780361 9.5
    endloop
  endfacet
  facet normal 0 0 1
    outer loop
      vertex -3.98074 0.392068 9.5
      vertex -3.98074 -0.392068 9.5
      vertex -3.92314 -0.780361 9.5
    endloop
  endfacet
  facet normal 0 -0 1
    outer loop
      vertex -3.98074 -0.392068 9.5
      vertex -3.98074 0.392068 9.5
      vertex -4 0 9.5
    endloop
  endfacet
  facet normal -0.514102 0.857729 0
    outer loop
      vertex -1.88559 3.52768 -3.5
      vertex -2.22228 3.32588 3.5
      vertex -1.88559 3.52768 3.5
    endloop
  endfacet
  facet normal -0.514102 0.857729 0
    outer loop
      vertex -2.22228 3.32588 3.5
      vertex -1.88559 3.52768 -3.5
      vertex -2.22228 3.32588 -3.5
    endloop
  endfacet
  facet normal -0.427555 0.903989 0
    outer loop
      vertex -1.53073 3.69552 -3.5
      vertex -1.88559 3.52768 3.5
      vertex -1.53073 3.69552 3.5
    endloop
  endfacet
  facet normal -0.427555 0.903989 0
    outer loop
      vertex -1.88559 3.52768 3.5
      vertex -1.53073 3.69552 -3.5
      vertex -1.88559 3.52768 -3.5
    endloop
  endfacet
  facet normal -0.5957 0.803207 0
    outer loop
      vertex -2.22228 3.32588 -3.5
      vertex -2.53757 3.09204 3.5
      vertex -2.22228 3.32588 3.5
    endloop
  endfacet
  facet normal -0.5957 0.803207 0
    outer loop
      vertex -2.53757 3.09204 3.5
      vertex -2.22228 3.32588 -3.5
      vertex -2.53757 3.09204 -3.5
    endloop
  endfacet
  facet normal -0.24298 0.970031 0
    outer loop
      vertex -0.780361 3.92314 -3.5
      vertex -1.16114 3.82776 3.5
      vertex -0.780361 3.92314 3.5
    endloop
  endfacet
  facet normal -0.24298 0.970031 0
    outer loop
      vertex -1.16114 3.82776 3.5
      vertex -0.780361 3.92314 -3.5
      vertex -1.16114 3.82776 -3.5
    endloop
  endfacet
  facet normal -0.0490684 0.998795 0
    outer loop
      vertex 0 4 -3.5
      vertex -0.392068 3.98074 3.5
      vertex 0 4 3.5
    endloop
  endfacet
  facet normal -0.0490684 0.998795 0
    outer loop
      vertex -0.392068 3.98074 3.5
      vertex 0 4 -3.5
      vertex -0.392068 3.98074 -3.5
    endloop
  endfacet
  facet normal 0.998795 -0.0490684 0
    outer loop
      vertex 3.98074 -0.392068 9.5
      vertex 4 0 -9.5
      vertex 4 0 9.5
    endloop
  endfacet
  facet normal 0.998795 -0.0490684 0
    outer loop
      vertex 4 0 -9.5
      vertex 3.98074 -0.392068 9.5
      vertex 3.98074 -0.392068 -9.5
    endloop
  endfacet
  facet normal 0.24298 -0.970031 0
    outer loop
      vertex 0.780361 -3.92314 -9.5
      vertex 1.16114 -3.82776 9.5
      vertex 0.780361 -3.92314 9.5
    endloop
  endfacet
  facet normal 0.24298 -0.970031 0
    outer loop
      vertex 1.16114 -3.82776 9.5
      vertex 0.780361 -3.92314 -9.5
      vertex 1.16114 -3.82776 -9.5
    endloop
  endfacet
  facet normal 0.0490684 -0.998795 0
    outer loop
      vertex 0 -4 -9.5
      vertex 0.392068 -3.98074 9.5
      vertex 0 -4 9.5
    endloop
  endfacet
  facet normal 0.0490684 -0.998795 0
    outer loop
      vertex 0.392068 -3.98074 9.5
      vertex 0 -4 -9.5
      vertex 0.392068 -3.98074 -9.5
    endloop
  endfacet
  facet normal 0.33689 -0.941544 0
    outer loop
      vertex 1.16114 -3.82776 -9.5
      vertex 1.53073 -3.69552 9.5
      vertex 1.16114 -3.82776 9.5
    endloop
  endfacet
  facet normal 0.33689 -0.941544 0
    outer loop
      vertex 1.53073 -3.69552 9.5
      vertex 1.16114 -3.82776 -9.5
      vertex 1.53073 -3.69552 -9.5
    endloop
  endfacet
  facet normal 0.67156 -0.740951 0
    outer loop
      vertex 2.53757 -3.09204 -9.5
      vertex 2.82843 -2.82843 9.5
      vertex 2.53757 -3.09204 9.5
    endloop
  endfacet
  facet normal 0.67156 -0.740951 0
    outer loop
      vertex 2.82843 -2.82843 9.5
      vertex 2.53757 -3.09204 -9.5
      vertex 2.82843 -2.82843 -9.5
    endloop
  endfacet
  facet normal 0.514102 -0.857729 0
    outer loop
      vertex 1.88559 -3.52768 -9.5
      vertex 2.22228 -3.32588 9.5
      vertex 1.88559 -3.52768 9.5
    endloop
  endfacet
  facet normal 0.514102 -0.857729 0
    outer loop
      vertex 2.22228 -3.32588 9.5
      vertex 1.88559 -3.52768 -9.5
      vertex 2.22228 -3.32588 -9.5
    endloop
  endfacet
  facet normal 0.803207 -0.5957 0
    outer loop
      vertex 3.09204 -2.53757 9.5
      vertex 3.32588 -2.22228 -9.5
      vertex 3.32588 -2.22228 9.5
    endloop
  endfacet
  facet normal 0.803207 -0.5957 0
    outer loop
      vertex 3.32588 -2.22228 -9.5
      vertex 3.09204 -2.53757 9.5
      vertex 3.09204 -2.53757 -9.5
    endloop
  endfacet
  facet normal 0.903989 -0.427555 0
    outer loop
      vertex 3.52768 -1.88559 9.5
      vertex 3.69552 -1.53073 -9.5
      vertex 3.69552 -1.53073 9.5
    endloop
  endfacet
  facet normal 0.903989 -0.427555 0
    outer loop
      vertex 3.69552 -1.53073 -9.5
      vertex 3.52768 -1.88559 9.5
      vertex 3.52768 -1.88559 -9.5
    endloop
  endfacet
  facet normal -0.67156 -0.740951 0
    outer loop
      vertex -2.82843 -2.82843 -9.5
      vertex -2.53757 -3.09204 9.5
      vertex -2.82843 -2.82843 9.5
    endloop
  endfacet
  facet normal -0.67156 -0.740951 -0
    outer loop
      vertex -2.53757 -3.09204 9.5
      vertex -2.82843 -2.82843 -9.5
      vertex -2.53757 -3.09204 -9.5
    endloop
  endfacet
  facet normal -0.514102 -0.857729 0
    outer loop
      vertex -2.22228 -3.32588 -9.5
      vertex -1.88559 -3.52768 9.5
      vertex -2.22228 -3.32588 9.5
    endloop
  endfacet
  facet normal -0.514102 -0.857729 -0
    outer loop
      vertex -1.88559 -3.52768 9.5
      vertex -2.22228 -3.32588 -9.5
      vertex -1.88559 -3.52768 -9.5
    endloop
  endfacet
  facet normal -0.33689 -0.941544 0
    outer loop
      vertex -1.53073 -3.69552 -9.5
      vertex -1.16114 -3.82776 9.5
      vertex -1.53073 -3.69552 9.5
    endloop
  endfacet
  facet normal -0.33689 -0.941544 -0
    outer loop
      vertex -1.16114 -3.82776 9.5
      vertex -1.53073 -3.69552 -9.5
      vertex -1.16114 -3.82776 -9.5
    endloop
  endfacet
  facet normal -0.146731 -0.989176 0
    outer loop
      vertex -0.780361 -3.92314 -9.5
      vertex -0.392068 -3.98074 9.5
      vertex -0.780361 -3.92314 9.5
    endloop
  endfacet
  facet normal -0.146731 -0.989176 -0
    outer loop
      vertex -0.392068 -3.98074 9.5
      vertex -0.780361 -3.92314 -9.5
      vertex -0.392068 -3.98074 -9.5
    endloop
  endfacet
  facet normal -0.903989 -0.427555 0
    outer loop
      vertex -3.52768 -1.88559 -9.5
      vertex -3.69552 -1.53073 9.5
      vertex -3.69552 -1.53073 -9.5
    endloop
  endfacet
  facet normal -0.903989 -0.427555 0
    outer loop
      vertex -3.69552 -1.53073 9.5
      vertex -3.52768 -1.88559 -9.5
      vertex -3.52768 -1.88559 9.5
    endloop
  endfacet
  facet normal -0.803207 -0.5957 0
    outer loop
      vertex -3.09204 -2.53757 -9.5
      vertex -3.32588 -2.22228 9.5
      vertex -3.32588 -2.22228 -9.5
    endloop
  endfacet
  facet normal -0.803207 -0.5957 0
    outer loop
      vertex -3.32588 -2.22228 9.5
      vertex -3.09204 -2.53757 -9.5
      vertex -3.09204 -2.53757 9.5
    endloop
  endfacet
  facet normal -0.970031 -0.24298 0
    outer loop
      vertex -3.82776 -1.16114 -9.5
      vertex -3.92314 -0.780361 9.5
      vertex -3.92314 -0.780361 -9.5
    endloop
  endfacet
  facet normal -0.970031 -0.24298 0
    outer loop
      vertex -3.92314 -0.780361 9.5
      vertex -3.82776 -1.16114 -9.5
      vertex -3.82776 -1.16114 9.5
    endloop
  endfacet
  facet normal -0.998795 -0.0490684 0
    outer loop
      vertex -3.98074 -0.392068 -9.5
      vertex -4 0 9.5
      vertex -4 0 -9.5
    endloop
  endfacet
  facet normal -0.998795 -0.0490684 0
    outer loop
      vertex -4 0 9.5
      vertex -3.98074 -0.392068 -9.5
      vertex -3.98074 -0.392068 9.5
    endloop
  endfacet
  facet normal 0.146731 -0.989176 0
    outer loop
      vertex 0.392068 -3.98074 -9.5
      vertex 0.780361 -3.92314 9.5
      vertex 0.392068 -3.98074 9.5
    endloop
  endfacet
  facet normal 0.146731 -0.989176 0
    outer loop
      vertex 0.780361 -3.92314 9.5
      vertex 0.392068 -3.98074 -9.5
      vertex 0.780361 -3.92314 -9.5
    endloop
  endfacet
  facet normal 0.427555 -0.903989 0
    outer loop
      vertex 1.53073 -3.69552 -9.5
      vertex 1.88559 -3.52768 9.5
      vertex 1.53073 -3.69552 9.5
    endloop
  endfacet
  facet normal 0.427555 -0.903989 0
    outer loop
      vertex 1.88559 -3.52768 9.5
      vertex 1.53073 -3.69552 -9.5
      vertex 1.88559 -3.52768 -9.5
    endloop
  endfacet
  facet normal 0.740951 -0.67156 0
    outer loop
      vertex 2.82843 -2.82843 9.5
      vertex 3.09204 -2.53757 -9.5
      vertex 3.09204 -2.53757 9.5
    endloop
  endfacet
  facet normal 0.740951 -0.67156 0
    outer loop
      vertex 3.09204 -2.53757 -9.5
      vertex 2.82843 -2.82843 9.5
      vertex 2.82843 -2.82843 -9.5
    endloop
  endfacet
  facet normal 0.5957 -0.803207 0
    outer loop
      vertex 2.22228 -3.32588 -9.5
      vertex 2.53757 -3.09204 9.5
      vertex 2.22228 -3.32588 9.5
    endloop
  endfacet
  facet normal 0.5957 -0.803207 0
    outer loop
      vertex 2.53757 -3.09204 9.5
      vertex 2.22228 -3.32588 -9.5
      vertex 2.53757 -3.09204 -9.5
    endloop
  endfacet
  facet normal 0.857729 -0.514102 0
    outer loop
      vertex 3.32588 -2.22228 9.5
      vertex 3.52768 -1.88559 -9.5
      vertex 3.52768 -1.88559 9.5
    endloop
  endfacet
  facet normal 0.857729 -0.514102 0
    outer loop
      vertex 3.52768 -1.88559 -9.5
      vertex 3.32588 -2.22228 9.5
      vertex 3.32588 -2.22228 -9.5
    endloop
  endfacet
  facet normal 0.989176 -0.146731 0
    outer loop
      vertex 3.92314 -0.780361 9.5
      vertex 3.98074 -0.392068 -9.5
      vertex 3.98074 -0.392068 9.5
    endloop
  endfacet
  facet normal 0.989176 -0.146731 0
    outer loop
      vertex 3.98074 -0.392068 -9.5
      vertex 3.92314 -0.780361 9.5
      vertex 3.92314 -0.780361 -9.5
    endloop
  endfacet
  facet normal 0.970031 -0.24298 0
    outer loop
      vertex 3.82776 -1.16114 9.5
      vertex 3.92314 -0.780361 -9.5
      vertex 3.92314 -0.780361 9.5
    endloop
  endfacet
  facet normal 0.970031 -0.24298 0
    outer loop
      vertex 3.92314 -0.780361 -9.5
      vertex 3.82776 -1.16114 9.5
      vertex 3.82776 -1.16114 -9.5
    endloop
  endfacet
  facet normal -0.5957 -0.803207 0
    outer loop
      vertex -2.53757 -3.09204 -9.5
      vertex -2.22228 -3.32588 9.5
      vertex -2.53757 -3.09204 9.5
    endloop
  endfacet
  facet normal -0.5957 -0.803207 -0
    outer loop
      vertex -2.22228 -3.32588 9.5
      vertex -2.53757 -3.09204 -9.5
      vertex -2.22228 -3.32588 -9.5
    endloop
  endfacet
  facet normal -0.427555 -0.903989 0
    outer loop
      vertex -1.88559 -3.52768 -9.5
      vertex -1.53073 -3.69552 9.5
      vertex -1.88559 -3.52768 9.5
    endloop
  endfacet
  facet normal -0.427555 -0.903989 -0
    outer loop
      vertex -1.53073 -3.69552 9.5
      vertex -1.88559 -3.52768 -9.5
      vertex -1.53073 -3.69552 -9.5
    endloop
  endfacet
  facet normal -0.24298 -0.970031 0
    outer loop
      vertex -1.16114 -3.82776 -9.5
      vertex -0.780361 -3.92314 9.5
      vertex -1.16114 -3.82776 9.5
    endloop
  endfacet
  facet normal -0.24298 -0.970031 -0
    outer loop
      vertex -0.780361 -3.92314 9.5
      vertex -1.16114 -3.82776 -9.5
      vertex -0.780361 -3.92314 -9.5
    endloop
  endfacet
  facet normal -0.857729 -0.514102 0
    outer loop
      vertex -3.32588 -2.22228 -9.5
      vertex -3.52768 -1.88559 9.5
      vertex -3.52768 -1.88559 -9.5
    endloop
  endfacet
  facet normal -0.857729 -0.514102 0
    outer loop
      vertex -3.52768 -1.88559 9.5
      vertex -3.32588 -2.22228 -9.5
      vertex -3.32588 -2.22228 9.5
    endloop
  endfacet
  facet normal -0.989176 -0.146731 0
    outer loop
      vertex -3.92314 -0.780361 -9.5
      vertex -3.98074 -0.392068 9.5
      vertex -3.98074 -0.392068 -9.5
    endloop
  endfacet
  facet normal -0.989176 -0.146731 0
    outer loop
      vertex -3.98074 -0.392068 9.5
      vertex -3.92314 -0.780361 -9.5
      vertex -3.92314 -0.780361 9.5
    endloop
  endfacet
  facet normal 0 0 1
    outer loop
      vertex 3.69552 1.53073 3.5
      vertex 3.86812 1 3.5
      vertex 3.82776 1.16114 3.5
    endloop
  endfacet
  facet normal 0 0 1
    outer loop
      vertex 3.52768 1.88559 3.5
      vertex 3.86812 1 3.5
      vertex 3.69552 1.53073 3.5
    endloop
  endfacet
  facet normal 0 0 1
    outer loop
      vertex 3.32588 2.22228 3.5
      vertex 3.86812 1 3.5
      vertex 3.52768 1.88559 3.5
    endloop
  endfacet
  facet normal 0 0 1
    outer loop
      vertex 3.09204 2.53757 3.5
      vertex 3.86812 1 3.5
      vertex 3.32588 2.22228 3.5
    endloop
  endfacet
  facet normal 0 0 1
    outer loop
      vertex 2.82843 2.82843 3.5
      vertex 3.86812 1 3.5
      vertex 3.09204 2.53757 3.5
    endloop
  endfacet
  facet normal 0 0 1
    outer loop
      vertex 2.53757 3.09204 3.5
      vertex 3.86812 1 3.5
      vertex 2.82843 2.82843 3.5
    endloop
  endfacet
  facet normal 0 0 1
    outer loop
      vertex 2.22228 3.32588 3.5
      vertex 3.86812 1 3.5
      vertex 2.53757 3.09204 3.5
    endloop
  endfacet
  facet normal 0 0 1
    outer loop
      vertex 1.88559 3.52768 3.5
      vertex 3.86812 1 3.5
      vertex 2.22228 3.32588 3.5
    endloop
  endfacet
  facet normal 0 0 1
    outer loop
      vertex 1.53073 3.69552 3.5
      vertex 3.86812 1 3.5
      vertex 1.88559 3.52768 3.5
    endloop
  endfacet
  facet normal 0 0 1
    outer loop
      vertex 1.16114 3.82776 3.5
      vertex 3.86812 1 3.5
      vertex 1.53073 3.69552 3.5
    endloop
  endfacet
  facet normal 0 0 1
    outer loop
      vertex 0.780361 3.92314 3.5
      vertex 3.86812 1 3.5
      vertex 1.16114 3.82776 3.5
    endloop
  endfacet
  facet normal 0 0 1
    outer loop
      vertex 0.392068 3.98074 3.5
      vertex 3.86812 1 3.5
      vertex 0.780361 3.92314 3.5
    endloop
  endfacet
  facet normal 0 0 1
    outer loop
      vertex 0 4 3.5
      vertex 3.86812 1 3.5
      vertex 0.392068 3.98074 3.5
    endloop
  endfacet
  facet normal -0 0 1
    outer loop
      vertex -0.392068 3.98074 3.5
      vertex 3.86812 1 3.5
      vertex 0 4 3.5
    endloop
  endfacet
  facet normal -0 0 1
    outer loop
      vertex -0.780361 3.92314 3.5
      vertex 3.86812 1 3.5
      vertex -0.392068 3.98074 3.5
    endloop
  endfacet
  facet normal -0 0 1
    outer loop
      vertex -1.16114 3.82776 3.5
      vertex 3.86812 1 3.5
      vertex -0.780361 3.92314 3.5
    endloop
  endfacet
  facet normal -0 0 1
    outer loop
      vertex -1.53073 3.69552 3.5
      vertex 3.86812 1 3.5
      vertex -1.16114 3.82776 3.5
    endloop
  endfacet
  facet normal -0 0 1
    outer loop
      vertex -1.88559 3.52768 3.5
      vertex 3.86812 1 3.5
      vertex -1.53073 3.69552 3.5
    endloop
  endfacet
  facet normal -0 0 1
    outer loop
      vertex -2.22228 3.32588 3.5
      vertex 3.86812 1 3.5
      vertex -1.88559 3.52768 3.5
    endloop
  endfacet
  facet normal -0 0 1
    outer loop
      vertex -2.53757 3.09204 3.5
      vertex 3.86812 1 3.5
      vertex -2.22228 3.32588 3.5
    endloop
  endfacet
  facet normal -0 0 1
    outer loop
      vertex -2.82843 2.82843 3.5
      vertex 3.86812 1 3.5
      vertex -2.53757 3.09204 3.5
    endloop
  endfacet
  facet normal -0 0 1
    outer loop
      vertex -3.09204 2.53757 3.5
      vertex 3.86812 1 3.5
      vertex -2.82843 2.82843 3.5
    endloop
  endfacet
  facet normal -0 0 1
    outer loop
      vertex -3.32588 2.22228 3.5
      vertex 3.86812 1 3.5
      vertex -3.09204 2.53757 3.5
    endloop
  endfacet
  facet normal -0 0 1
    outer loop
      vertex -3.52768 1.88559 3.5
      vertex 3.86812 1 3.5
      vertex -3.32588 2.22228 3.5
    endloop
  endfacet
  facet normal -0 0 1
    outer loop
      vertex -3.69552 1.53073 3.5
      vertex 3.86812 1 3.5
      vertex -3.52768 1.88559 3.5
    endloop
  endfacet
  facet normal 0 0 1
    outer loop
      vertex -3.86812 1 3.5
      vertex -3.69552 1.53073 3.5
      vertex -3.82776 1.16114 3.5
    endloop
  endfacet
  facet normal 0 0 1
    outer loop
      vertex -3.69552 1.53073 3.5
      vertex -3.86812 1 3.5
      vertex 3.86812 1 3.5
    endloop
  endfacet
  facet normal 0 1 -0
    outer loop
      vertex 3.86812 1 3.5
      vertex -3.86812 1 9.5
      vertex 3.86812 1 9.5
    endloop
  endfacet
  facet normal 0 1 0
    outer loop
      vertex -3.86812 1 9.5
      vertex 3.86812 1 3.5
      vertex -3.86812 1 3.5
    endloop
  endfacet
  facet normal 0 0 -1
    outer loop
      vertex 3.86812 1 -3.5
      vertex 3.69552 1.53073 -3.5
      vertex 3.82776 1.16114 -3.5
    endloop
  endfacet
  facet normal 0 0 -1
    outer loop
      vertex 3.86812 1 -3.5
      vertex 3.52768 1.88559 -3.5
      vertex 3.69552 1.53073 -3.5
    endloop
  endfacet
  facet normal 0 0 -1
    outer loop
      vertex 3.86812 1 -3.5
      vertex 3.32588 2.22228 -3.5
      vertex 3.52768 1.88559 -3.5
    endloop
  endfacet
  facet normal 0 0 -1
    outer loop
      vertex 3.86812 1 -3.5
      vertex 3.09204 2.53757 -3.5
      vertex 3.32588 2.22228 -3.5
    endloop
  endfacet
  facet normal 0 0 -1
    outer loop
      vertex 3.86812 1 -3.5
      vertex 2.82843 2.82843 -3.5
      vertex 3.09204 2.53757 -3.5
    endloop
  endfacet
  facet normal 0 0 -1
    outer loop
      vertex 3.86812 1 -3.5
      vertex 2.53757 3.09204 -3.5
      vertex 2.82843 2.82843 -3.5
    endloop
  endfacet
  facet normal 0 0 -1
    outer loop
      vertex 3.86812 1 -3.5
      vertex 2.22228 3.32588 -3.5
      vertex 2.53757 3.09204 -3.5
    endloop
  endfacet
  facet normal 0 0 -1
    outer loop
      vertex 3.86812 1 -3.5
      vertex 1.88559 3.52768 -3.5
      vertex 2.22228 3.32588 -3.5
    endloop
  endfacet
  facet normal 0 0 -1
    outer loop
      vertex 3.86812 1 -3.5
      vertex 1.53073 3.69552 -3.5
      vertex 1.88559 3.52768 -3.5
    endloop
  endfacet
  facet normal 0 0 -1
    outer loop
      vertex 3.86812 1 -3.5
      vertex 1.16114 3.82776 -3.5
      vertex 1.53073 3.69552 -3.5
    endloop
  endfacet
  facet normal 0 0 -1
    outer loop
      vertex 3.86812 1 -3.5
      vertex 0.780361 3.92314 -3.5
      vertex 1.16114 3.82776 -3.5
    endloop
  endfacet
  facet normal 0 0 -1
    outer loop
      vertex 3.86812 1 -3.5
      vertex 0.392068 3.98074 -3.5
      vertex 0.780361 3.92314 -3.5
    endloop
  endfacet
  facet normal 0 0 -1
    outer loop
      vertex 3.86812 1 -3.5
      vertex 0 4 -3.5
      vertex 0.392068 3.98074 -3.5
    endloop
  endfacet
  facet normal 0 0 -1
    outer loop
      vertex 3.86812 1 -3.5
      vertex -0.392068 3.98074 -3.5
      vertex 0 4 -3.5
    endloop
  endfacet
  facet normal 0 0 -1
    outer loop
      vertex 3.86812 1 -3.5
      vertex -0.780361 3.92314 -3.5
      vertex -0.392068 3.98074 -3.5
    endloop
  endfacet
  facet normal 0 0 -1
    outer loop
      vertex 3.86812 1 -3.5
      vertex -1.16114 3.82776 -3.5
      vertex -0.780361 3.92314 -3.5
    endloop
  endfacet
  facet normal 0 0 -1
    outer loop
      vertex 3.86812 1 -3.5
      vertex -1.53073 3.69552 -3.5
      vertex -1.16114 3.82776 -3.5
    endloop
  endfacet
  facet normal 0 0 -1
    outer loop
      vertex 3.86812 1 -3.5
      vertex -1.88559 3.52768 -3.5
      vertex -1.53073 3.69552 -3.5
    endloop
  endfacet
  facet normal 0 0 -1
    outer loop
      vertex 3.86812 1 -3.5
      vertex -2.22228 3.32588 -3.5
      vertex -1.88559 3.52768 -3.5
    endloop
  endfacet
  facet normal 0 0 -1
    outer loop
      vertex 3.86812 1 -3.5
      vertex -2.53757 3.09204 -3.5
      vertex -2.22228 3.32588 -3.5
    endloop
  endfacet
  facet normal 0 0 -1
    outer loop
      vertex 3.86812 1 -3.5
      vertex -2.82843 2.82843 -3.5
      vertex -2.53757 3.09204 -3.5
    endloop
  endfacet
  facet normal 0 0 -1
    outer loop
      vertex 3.86812 1 -3.5
      vertex -3.09204 2.53757 -3.5
      vertex -2.82843 2.82843 -3.5
    endloop
  endfacet
  facet normal 0 0 -1
    outer loop
      vertex 3.86812 1 -3.5
      vertex -3.32588 2.22228 -3.5
      vertex -3.09204 2.53757 -3.5
    endloop
  endfacet
  facet normal 0 0 -1
    outer loop
      vertex 3.86812 1 -3.5
      vertex -3.52768 1.88559 -3.5
      vertex -3.32588 2.22228 -3.5
    endloop
  endfacet
  facet normal 0 0 -1
    outer loop
      vertex 3.86812 1 -3.5
      vertex -3.69552 1.53073 -3.5
      vertex -3.52768 1.88559 -3.5
    endloop
  endfacet
  facet normal 0 0 -1
    outer loop
      vertex -3.86812 1 -3.5
      vertex -3.69552 1.53073 -3.5
      vertex 3.86812 1 -3.5
    endloop
  endfacet
  facet normal 0 0 -1
    outer loop
      vertex -3.69552 1.53073 -3.5
      vertex -3.86812 1 -3.5
      vertex -3.82776 1.16114 -3.5
    endloop
  endfacet
  facet normal 0 1 -0
    outer loop
      vertex 3.86812 1 -9.5
      vertex -3.86812 1 -3.5
      vertex 3.86812 1 -3.5
    endloop
  endfacet
  facet normal 0 1 0
    outer loop
      vertex -3.86812 1 -3.5
      vertex 3.86812 1 -9.5
      vertex -3.86812 1 -9.5
    endloop
  endfacet
endsolid OpenSCAD_Model
