<?xml version="1.0" encoding="UTF-8" standalone="no"?>
<!-- Created with Inkscape (http://www.inkscape.org/) -->

<svg
   width="1048.7065mm"
   height="665.37762mm"
   viewBox="-8 -5 1063.5872 674.819"
   version="1.1"
   id="svg5"
   inkscape:version="1.2.2 (b0a8486541, 2022-12-01)"
   sodipodi:docname="lados.svg"
   inkscape:export-filename="lados.pdf"
   inkscape:export-xdpi="96"
   inkscape:export-ydpi="96"
   xmlns:inkscape="http://www.inkscape.org/namespaces/inkscape"
   xmlns:sodipodi="http://sodipodi.sourceforge.net/DTD/sodipodi-0.dtd"
   xmlns="http://www.w3.org/2000/svg"
   xmlns:svg="http://www.w3.org/2000/svg">
  <sodipodi:namedview
     id="namedview7"
     pagecolor="#ffffff"
     bordercolor="#666666"
     borderopacity="1.0"
     inkscape:pageshadow="2"
     inkscape:pageopacity="0.0"
     inkscape:pagecheckerboard="0"
     inkscape:document-units="mm"
     showgrid="false"
     inkscape:zoom="0.27294512"
     inkscape:cx="1111.9451"
     inkscape:cy="950.74057"
     inkscape:window-width="2560"
     inkscape:window-height="1335"
     inkscape:window-x="1280"
     inkscape:window-y="32"
     inkscape:window-maximized="1"
     inkscape:current-layer="layer1"
     fit-margin-top="2"
     fit-margin-left="2"
     fit-margin-right="2"
     fit-margin-bottom="2"
     inkscape:showpageshadow="2"
     inkscape:deskcolor="#d1d1d1" />
  <defs
     id="defs2" />
  <g
     inkscape:label="Capa 1"
     inkscape:groupmode="layer"
     id="layer1"
     transform="translate(806.91197,-905.93098)">
    <text
       xml:space="preserve"
       style="font-style:normal;font-weight:normal;font-size:10.5833px;line-height:1.25;font-family:sans-serif;fill:#000000;fill-opacity:1;stroke:none;stroke-width:0.264583"
       x="61.961048"
       y="28.316933"
       id="text3050"><tspan
         sodipodi:role="line"
         id="tspan3048"
         style="stroke-width:0.264583"
         x="61.961048"
         y="28.316933" /></text>
    <text
       xml:space="preserve"
       style="font-style:normal;font-weight:normal;font-size:10.5833px;line-height:1.25;font-family:sans-serif;fill:#000000;fill-opacity:1;stroke:none;stroke-width:0.264583"
       x="-349.67087"
       y="-472.10529"
       id="text13448"><tspan
         sodipodi:role="line"
         id="tspan13446"
         style="stroke-width:0.264583"
         x="-349.67087"
         y="-472.10529" /></text>
    <path
       id="rect11448-3-6-9"
       style="vector-effect:non-scaling-stroke;fill:none;stroke:#000000;stroke-width:2.53259e-06;stroke-miterlimit:7.27273;-inkscape-stroke:hairline;stop-color:#000000"
       d="m -292.42685,905.22442 h -519.26504 v 664.99978 h 519.26504 z m -20.00006,9.9999 c -7e-5,1.1045 -0.8954,1.9998 -1.99987,1.9999 -1.10448,-10e-5 -1.99981,-0.8954 -1.99988,-1.9999 7e-5,-1.1045 0.8954,-1.9998 1.99988,-1.9999 1.10447,10e-5 1.9998,0.8954 1.99987,1.9999 z m 0,282.50028 c -7e-5,1.1045 -0.8954,1.9998 -1.99987,1.9999 -1.10448,-10e-5 -1.99981,-0.8954 -1.99988,-1.9999 -2.2e-4,-1.1047 0.89521,-2.0003 1.99988,-2.0004 1.10466,10e-5 2.00009,0.8957 1.99987,2.0004 z m 0,362.4997 c -7e-5,1.1045 -0.8954,1.9998 -1.99987,1.9999 -1.10448,-1e-4 -1.99981,-0.8954 -1.99988,-1.9999 8e-5,-1.1045 0.89542,-1.9998 1.99988,-1.9999 1.10445,10e-5 1.99979,0.8954 1.99987,1.9999 z m -119.38678,-559.7644 c 2e-4,3.314 -2.6863,6.0005 -6.0002,6.0004 -3.3138,0 -6.0002,-2.6864 -6.0001,-6.0004 0,-3.31385 2.6864,-6.00015 6.0001,-6.00015 3.3139,-10e-5 6.0003,2.6863 6.0002,6.00015 z m 0,218.2639 c 2e-4,3.3139 -2.6863,6.0003 -6.0002,6.0002 -3.3138,10e-5 -6.0002,-2.6864 -6.0001,-6.0002 0,-3.3138 2.6864,-6.0002 6.0001,-6.0001 3.3139,-10e-5 6.0003,2.6863 6.0002,6.0001 z m 0,218.2636 c 1e-4,3.3138 -2.6863,6.0002 -6.0002,6.0001 -3.3137,10e-5 -6.0001,-2.6863 -6.0001,-6.0001 2e-4,-3.3136 2.6865,-5.9998 6.0001,-5.9997 3.3137,-10e-5 6.0001,2.686 6.0002,5.9997 z m -123.5671,-521.76308 c -2e-4,1.1047 -0.8958,2.0001 -2.0005,1.9999 -1.1045,-10e-5 -2.0002,-0.8954 -2.0003,-1.9999 10e-5,-1.1045 0.8958,-1.9998 2.0003,-1.9999 1.1047,-2e-4 2.0003,0.8952 2.0005,1.9999 z m 0,644.99998 c -2e-4,1.1047 -0.8958,2.0001 -2.0005,1.9999 -1.1045,-1e-4 -2.0002,-0.8954 -2.0003,-1.9999 10e-5,-1.1045 0.8958,-1.9998 2.0003,-1.9999 1.1047,-2e-4 2.0003,0.8952 2.0005,1.9999 z m -124.1893,-559.7644 c 1e-4,3.314 -2.6863,6.0004 -6.0002,6.0004 -3.3136,-2e-4 -5.9998,-2.6866 -5.9997,-6.0004 0,-3.31365 2.6861,-5.99995 5.9997,-6.00015 3.3138,0 6.0002,2.6863 6.0002,6.00015 z m 0,218.2639 c 1e-4,3.3138 -2.6863,6.0003 -6.0002,6.0002 -3.3136,-2e-4 -5.9998,-2.6865 -5.9997,-6.0002 0,-3.3136 2.6861,-5.9999 5.9997,-6.0001 3.3138,-10e-5 6.0002,2.6863 6.0002,6.0001 z m 0,218.2636 c 0,3.3138 -2.6864,6.0002 -6.0002,6.0001 -3.3136,-2e-4 -5.9997,-2.6865 -5.9997,-6.0001 2e-4,-3.3135 2.6863,-5.9995 5.9997,-5.9997 3.3137,-10e-5 6,2.6861 6.0002,5.9997 z m -120.1214,-521.76308 c 0,1.1045 -0.8954,1.9998 -1.9999,1.9999 -1.1047,2e-4 -2.0003,-0.8952 -2.0004,-1.9999 10e-5,-1.1047 0.8957,-2.0001 2.0004,-1.9999 1.1045,10e-5 1.9999,0.8954 1.9999,1.9999 z m 0,282.50028 c 0,1.1045 -0.8954,1.9998 -1.9999,1.9999 -1.1047,2e-4 -2.0003,-0.8952 -2.0004,-1.9999 -2e-4,-1.1049 0.8955,-2.0006 2.0004,-2.0004 1.1047,10e-5 2.0001,0.8957 1.9999,2.0004 z m 0,362.4997 c 0,1.1045 -0.8954,1.9998 -1.9999,1.9999 -1.1047,2e-4 -2.0003,-0.8952 -2.0004,-1.9999 10e-5,-1.1047 0.8957,-2.0001 2.0004,-1.9999 1.1045,10e-5 1.9999,0.8954 1.9999,1.9999 z m 503.26471,-624.99988 c -10e-5,1.1045 -0.8954,1.9998 -1.9999,1.9999 -1.1047,2e-4 -2.0003,-0.8952 -2.0004,-1.9999 10e-5,-1.1047 0.8957,-2.0001 2.0004,-1.9999 1.1045,10e-5 1.9998,0.8954 1.9999,1.9999 z m -2.7e-4,605.00008 c -7e-5,1.1045 -0.8954,1.9998 -1.99987,1.9999 -1.10448,-10e-5 -1.99981,-0.8954 -1.99988,-1.9999 8e-5,-1.1045 0.89542,-1.9998 1.99988,-1.9999 1.10445,10e-5 1.99979,0.8954 1.99987,1.9999 z"
       sodipodi:nodetypes="ccccccccccccccccccccccccccccccscscsccccccscscccccccccccccccccccccccccccscsccccccscscs" />
    <path
       id="rect11448-3-6-9-2"
       style="vector-effect:non-scaling-stroke;fill:none;stroke:#000000;stroke-width:2.53259e-06;stroke-miterlimit:7.27273;-inkscape-stroke:hairline;stop-color:#000000"
       d="m 234.12518,907.12213 h -519.26504 v 664.99967 h 519.26504 z m -20.00006,9.9999 c -7e-5,1.1045 -0.8954,1.9998 -1.99987,1.9999 -1.10448,-10e-5 -1.99981,-0.8954 -1.99988,-1.9999 7e-5,-1.1045 0.8954,-1.9998 1.99988,-1.9999 1.10447,10e-5 1.9998,0.8954 1.99987,1.9999 z m 0,282.50017 c -7e-5,1.1045 -0.8954,1.9998 -1.99987,1.9999 -1.10448,-10e-5 -1.99981,-0.8954 -1.99988,-1.9999 -2.2e-4,-1.1047 0.89521,-2.0003 1.99988,-2.0004 1.10466,1e-4 2.00009,0.8957 1.99987,2.0004 z m 0,362.4997 c -7e-5,1.1045 -0.8954,1.9998 -1.99987,1.9999 -1.10448,-10e-5 -1.99981,-0.8954 -1.99988,-1.9999 8e-5,-1.1045 0.89542,-1.9998 1.99988,-1.9999 1.10445,10e-5 1.99979,0.8954 1.99987,1.9999 z M -28.828755,917.12203 c -2e-4,1.1047 -0.8958,2.0001 -2.0005,1.9999 -1.1045,-10e-5 -2.0002,-0.8954 -2.0003,-1.9999 10e-5,-1.1045 0.8958,-1.9998 2.0003,-1.9999 1.1047,-2e-4 2.0003,0.8952 2.0005,1.9999 z m 0,644.99987 c -2e-4,1.1047 -0.8958,2.0001 -2.0005,1.9999 -1.1045,-10e-5 -2.0002,-0.8954 -2.0003,-1.9999 10e-5,-1.1045 0.8958,-1.9998 2.0003,-1.9999 1.1047,-2e-4 2.0003,0.8952 2.0005,1.9999 z M -273.13946,917.12203 c 0,1.1045 -0.8954,1.9998 -1.9999,1.9999 -1.1047,2e-4 -2.0003,-0.8952 -2.0004,-1.9999 1e-4,-1.1047 0.8957,-2.0001 2.0004,-1.9999 1.1045,10e-5 1.9999,0.8954 1.9999,1.9999 z m 0,282.50017 c 0,1.1045 -0.8954,1.9998 -1.9999,1.9999 -1.1047,2e-4 -2.0003,-0.8952 -2.0004,-1.9999 -2e-4,-1.1049 0.8955,-2.0006 2.0004,-2.0004 1.1047,1e-4 2.0001,0.8957 1.9999,2.0004 z m 0,362.4997 c 0,1.1045 -0.8954,1.9998 -1.9999,1.9999 -1.1047,2e-4 -2.0003,-0.8952 -2.0004,-1.9999 1e-4,-1.1047 0.8957,-2.0001 2.0004,-1.9999 1.1045,10e-5 1.9999,0.8954 1.9999,1.9999 z M 230.12525,937.12213 c -1e-4,1.1045 -0.8954,1.9998 -1.9999,1.9999 -1.1047,2e-4 -2.0003,-0.8952 -2.0004,-1.9999 10e-5,-1.1047 0.8957,-2.0001 2.0004,-1.9999 1.1045,1e-4 1.9998,0.8954 1.9999,1.9999 z m -2.7e-4,604.99997 c -7e-5,1.1045 -0.8954,1.9998 -1.99987,1.9999 -1.10448,-10e-5 -1.99981,-0.8954 -1.99988,-1.9999 8e-5,-1.1045 0.89542,-1.9998 1.99988,-1.9999 1.10445,10e-5 1.99979,0.8954 1.99987,1.9999 z"
       sodipodi:nodetypes="ccccccccccccccccccccccccccscsccccccccccccscsccccccscscs" />
  </g>
</svg>
