  0
SECTION
  2
BLOCKS
  0
ENDSEC
  0
SECTION
  2
ENTITIES
  0
LINE
  8
0
 10
-28.914
 20
0
 11
-28.914
 21
-11.998
  0
LINE
  8
0
 10
-28.914
 20
-11.998
 11
-15.414
 21
-11.998
  0
LINE
  8
0
 10
-15.414
 20
-11.998
 11
-14.164
 21
-14.998
  0
LINE
  8
0
 10
-14.164
 20
-14.998
 11
-3.66397
 21
-14.998
  0
LINE
  8
0
 10
-3.66397
 20
-14.998
 11
-2.41397
 21
-11.998
  0
LINE
  8
0
 10
-2.41397
 20
-11.998
 11
48.162
 21
-11.998
  0
LINE
  8
0
 10
48.162
 20
-11.998
 11
49.166
 21
-12.638
  0
LINE
  8
0
 10
49.166
 20
-12.638
 11
50.302
 21
-12.992
  0
LINE
  8
0
 10
50.302
 20
-12.992
 11
51.492
 21
-13.042
  0
LINE
  8
0
 10
51.492
 20
-13.042
 11
52.6541
 21
-12.782
  0
LINE
  8
0
 10
52.6541
 20
-12.782
 11
53.71
 21
-12.23
  0
LINE
  8
0
 10
53.71
 20
-12.23
 11
53.96
 21
-11.998
  0
LINE
  8
0
 10
53.96
 20
-11.998
 11
104.586
 21
-11.998
  0
LINE
  8
0
 10
104.586
 20
-11.998
 11
105.836
 21
-14.998
  0
LINE
  8
0
 10
105.836
 20
-14.998
 11
116.336
 21
-14.998
  0
LINE
  8
0
 10
116.336
 20
-14.998
 11
117.584
 21
-11.998
  0
LINE
  8
0
 10
117.584
 20
-11.998
 11
131.086
 21
-11.998
  0
LINE
  8
0
 10
131.086
 20
-11.998
 11
131.086
 21
0
  0
LINE
  8
0
 10
131.086
 20
0
 11
-28.914
 21
0
  0
LINE
  8
0
 10
-26.328
 20
-4.584
 11
-25.914
 21
-4.26799
  0
LINE
  8
0
 10
-25.914
 20
-4.26799
 11
-25.432
 21
-4.06799
  0
LINE
  8
0
 10
-25.432
 20
-4.06799
 11
-24.914
 21
-3.99799
  0
LINE
  8
0
 10
-24.914
 20
-3.99799
 11
-20.914
 21
-3.99799
  0
LINE
  8
0
 10
-20.914
 20
-3.99799
 11
-20.398
 21
-4.06799
  0
LINE
  8
0
 10
-20.398
 20
-4.06799
 11
-19.914
 21
-4.26799
  0
LINE
  8
0
 10
-19.914
 20
-4.26799
 11
-19.5
 21
-4.584
  0
LINE
  8
0
 10
-19.5
 20
-4.584
 11
-19.182
 21
-4.99799
  0
LINE
  8
0
 10
-19.182
 20
-4.99799
 11
-18.984
 21
-5.48199
  0
LINE
  8
0
 10
-18.984
 20
-5.48199
 11
-18.914
 21
-5.99799
  0
LINE
  8
0
 10
-18.914
 20
-5.99799
 11
-18.984
 21
-6.51599
  0
LINE
  8
0
 10
-18.984
 20
-6.51599
 11
-19.182
 21
-6.99799
  0
LINE
  8
0
 10
-19.182
 20
-6.99799
 11
-19.5
 21
-7.41199
  0
LINE
  8
0
 10
-19.5
 20
-7.41199
 11
-19.914
 21
-7.73
  0
LINE
  8
0
 10
-19.914
 20
-7.73
 11
-20.398
 21
-7.92999
  0
LINE
  8
0
 10
-20.398
 20
-7.92999
 11
-20.914
 21
-7.99799
  0
LINE
  8
0
 10
-20.914
 20
-7.99799
 11
-24.914
 21
-7.99799
  0
LINE
  8
0
 10
-24.914
 20
-7.99799
 11
-25.432
 21
-7.92999
  0
LINE
  8
0
 10
-25.432
 20
-7.92999
 11
-25.914
 21
-7.73
  0
LINE
  8
0
 10
-25.914
 20
-7.73
 11
-26.328
 21
-7.41199
  0
LINE
  8
0
 10
-26.328
 20
-7.41199
 11
-26.646
 21
-6.99799
  0
LINE
  8
0
 10
-26.646
 20
-6.99799
 11
-26.846
 21
-6.51599
  0
LINE
  8
0
 10
-26.846
 20
-6.51599
 11
-26.914
 21
-5.99799
  0
LINE
  8
0
 10
-26.914
 20
-5.99799
 11
-26.846
 21
-5.48199
  0
LINE
  8
0
 10
-26.846
 20
-5.48199
 11
-26.646
 21
-4.99799
  0
LINE
  8
0
 10
-26.646
 20
-4.99799
 11
-26.328
 21
-4.584
  0
LINE
  8
0
 10
50.672
 20
-10.044
 11
50.286
 21
-9.88399
  0
LINE
  8
0
 10
50.286
 20
-9.88399
 11
49.954
 21
-9.62999
  0
LINE
  8
0
 10
49.954
 20
-9.62999
 11
49.7
 21
-9.29799
  0
LINE
  8
0
 10
49.7
 20
-9.29799
 11
49.54
 21
-8.91399
  0
LINE
  8
0
 10
49.54
 20
-8.91399
 11
49.486
 21
-8.49998
  0
LINE
  8
0
 10
49.486
 20
-8.49998
 11
49.54
 21
-8.086
  0
LINE
  8
0
 10
49.54
 20
-8.086
 11
49.7
 21
-7.7
  0
LINE
  8
0
 10
49.7
 20
-7.7
 11
49.954
 21
-7.368
  0
LINE
  8
0
 10
49.954
 20
-7.368
 11
50.286
 21
-7.114
  0
LINE
  8
0
 10
50.286
 20
-7.114
 11
50.562
 21
-6.99799
  0
LINE
  8
0
 10
50.562
 20
-6.99799
 11
50.672
 21
-6.95399
  0
LINE
  8
0
 10
50.672
 20
-6.95399
 11
51.086
 21
-6.89999
  0
LINE
  8
0
 10
51.086
 20
-6.89999
 11
51.5
 21
-6.95399
  0
LINE
  8
0
 10
51.5
 20
-6.95399
 11
51.61
 21
-6.99799
  0
LINE
  8
0
 10
51.61
 20
-6.99799
 11
51.886
 21
-7.114
  0
LINE
  8
0
 10
51.886
 20
-7.114
 11
52.218
 21
-7.368
  0
LINE
  8
0
 10
52.218
 20
-7.368
 11
52.472
 21
-7.7
  0
LINE
  8
0
 10
52.472
 20
-7.7
 11
52.632
 21
-8.086
  0
LINE
  8
0
 10
52.632
 20
-8.086
 11
52.686
 21
-8.49998
  0
LINE
  8
0
 10
52.686
 20
-8.49998
 11
52.632
 21
-8.91399
  0
LINE
  8
0
 10
52.632
 20
-8.91399
 11
52.472
 21
-9.29799
  0
LINE
  8
0
 10
52.472
 20
-9.29799
 11
52.218
 21
-9.62999
  0
LINE
  8
0
 10
52.218
 20
-9.62999
 11
51.886
 21
-9.88399
  0
LINE
  8
0
 10
51.886
 20
-9.88399
 11
51.5
 21
-10.044
  0
LINE
  8
0
 10
51.5
 20
-10.044
 11
51.086
 21
-10.098
  0
LINE
  8
0
 10
51.086
 20
-10.098
 11
50.672
 21
-10.044
  0
LINE
  8
0
 10
128.016
 20
-6.51599
 11
127.818
 21
-6.99799
  0
LINE
  8
0
 10
127.818
 20
-6.99799
 11
127.5
 21
-7.41199
  0
LINE
  8
0
 10
127.5
 20
-7.41199
 11
127.086
 21
-7.73
  0
LINE
  8
0
 10
127.086
 20
-7.73
 11
126.602
 21
-7.92999
  0
LINE
  8
0
 10
126.602
 20
-7.92999
 11
126.086
 21
-7.99799
  0
LINE
  8
0
 10
126.086
 20
-7.99799
 11
122.086
 21
-7.99799
  0
LINE
  8
0
 10
122.086
 20
-7.99799
 11
121.568
 21
-7.92999
  0
LINE
  8
0
 10
121.568
 20
-7.92999
 11
121.086
 21
-7.73
  0
LINE
  8
0
 10
121.086
 20
-7.73
 11
120.672
 21
-7.41199
  0
LINE
  8
0
 10
120.672
 20
-7.41199
 11
120.354
 21
-6.99799
  0
LINE
  8
0
 10
120.354
 20
-6.99799
 11
120.154
 21
-6.51599
  0
LINE
  8
0
 10
120.154
 20
-6.51599
 11
120.086
 21
-5.99799
  0
LINE
  8
0
 10
120.086
 20
-5.99799
 11
120.154
 21
-5.48199
  0
LINE
  8
0
 10
120.154
 20
-5.48199
 11
120.354
 21
-4.99799
  0
LINE
  8
0
 10
120.354
 20
-4.99799
 11
120.672
 21
-4.584
  0
LINE
  8
0
 10
120.672
 20
-4.584
 11
121.086
 21
-4.26799
  0
LINE
  8
0
 10
121.086
 20
-4.26799
 11
121.568
 21
-4.06799
  0
LINE
  8
0
 10
121.568
 20
-4.06799
 11
122.086
 21
-3.99799
  0
LINE
  8
0
 10
122.086
 20
-3.99799
 11
126.086
 21
-3.99799
  0
LINE
  8
0
 10
126.086
 20
-3.99799
 11
126.602
 21
-4.06799
  0
LINE
  8
0
 10
126.602
 20
-4.06799
 11
127.086
 21
-4.26799
  0
LINE
  8
0
 10
127.086
 20
-4.26799
 11
127.5
 21
-4.584
  0
LINE
  8
0
 10
127.5
 20
-4.584
 11
127.818
 21
-4.99799
  0
LINE
  8
0
 10
127.818
 20
-4.99799
 11
128.016
 21
-5.48199
  0
LINE
  8
0
 10
128.016
 20
-5.48199
 11
128.086
 21
-5.99799
  0
LINE
  8
0
 10
128.086
 20
-5.99799
 11
128.016
 21
-6.51599
  0
ENDSEC
  0
SECTION
  2
OBJECTS
  0
DICTIONARY
  0
ENDSEC
  0
EOF
