  0
SECTION
  2
HEADER
  9
$ACADVER
  1
AC1014
  9
$HANDSEED
  5
FFFF
  9
$MEASUREMENT
 70
     1
  0
ENDSEC
  0
SECTION
  2
TABLES
  0
TABLE
  2
VPORT
  5
8
330
0
100
AcDbSymbolTable
 70
     4
  0
VPORT
  5
2E
330
8
100
AcDbSymbolTableRecord
100
AcDbViewportTableRecord
  2
*ACTIVE
 70
     0
 10
0.0
 20
0.0
 11
1.0
 21
1.0
 12
210.0
 22
148.5
 13
0.0
 23
0.0
 14
10.0
 24
10.0
 15
10.0
 25
10.0
 16
0.0
 26
0.0
 36
1.0
 17
0.0
 27
0.0
 37
0.0
 40
341.0
 41
1.24
 42
50.0
 43
0.0
 44
0.0
 50
0.0
 51
0.0
 71
     0
 72
   100
 73
     1
 74
     3
 75
     0
 76
     0
 77
     0
 78
     0
  0
ENDTAB
  0
TABLE
  2
LTYPE
  5
5
330
0
100
AcDbSymbolTable
 70
     1
  0
LTYPE
  5
14
330
5
100
AcDbSymbolTableRecord
100
AcDbLinetypeTableRecord
  2
BYBLOCK
 70
     0
  3

 72
    65
 73
     0
 40
0.0
  0
LTYPE
  5
15
330
5
100
AcDbSymbolTableRecord
100
AcDbLinetypeTableRecord
  2
BYLAYER
 70
     0
  3

 72
    65
 73
     0
 40
0.0
  0
LTYPE
  5
16
330
5
100
AcDbSymbolTableRecord
100
AcDbLinetypeTableRecord
  2
CONTINUOUS
 70
     0
  3
Solid line
 72
    65
 73
     0
 40
0.0
  0
ENDTAB
  0
TABLE
  2
LAYER
  5
2
100
AcDbSymbolTable
 70
1
  0
LAYER
  5
50
100
AcDbSymbolTableRecord
100
AcDbLayerTableRecord
  2
0
 70
0
  6
CONTINUOUS
  0
ENDTAB
  0
TABLE
  2
STYLE
  5
3
330
0
100
AcDbSymbolTable
 70
     1
  0
STYLE
  5
11
330
3
100
AcDbSymbolTableRecord
100
AcDbTextStyleTableRecord
  2
STANDARD
 70
     0
 40
0.0
 41
1.0
 50
0.0
 71
     0
 42
2.5
  3
txt
  4

  0
ENDTAB
  0
TABLE
  2
VIEW
  5
6
330
0
100
AcDbSymbolTable
 70
     0
  0
ENDTAB
  0
TABLE
  2
UCS
  5
7
330
0
100
AcDbSymbolTable
 70
     0
  0
ENDTAB
  0
TABLE
  2
APPID
  5
9
330
0
100
AcDbSymbolTable
 70
     2
  0
APPID
  5
12
330
9
100
AcDbSymbolTableRecord
100
AcDbRegAppTableRecord
  2
ACAD
 70
     0
  0
ENDTAB
  0
TABLE
  2
DIMSTYLE
  5
A
330
0
100
AcDbSymbolTable
 70
     1
  0
DIMSTYLE
105
27
330
A
100
AcDbSymbolTableRecord
100
AcDbDimStyleTableRecord
  2
ISO-25
 70
     0
  3

  4

  5

  6

  7

 40
1.0
 41
2.5
 42
0.625
 43
3.75
 44
1.25
 45
0.0
 46
0.0
 47
0.0
 48
0.0
140
2.5
141
2.5
142
0.0
143
0.03937007874016
144
1.0
145
0.0
146
1.0
147
0.625
 71
     0
 72
     0
 73
     0
 74
     0
 75
     0
 76
     0
 77
     1
 78
     8
170
     0
171
     3
172
     1
173
     0
174
     0
175
     0
176
     0
177
     0
178
     0
270
     2
271
     2
272
     2
273
     2
274
     3
340
11
275
     0
280
     0
281
     0
282
     0
283
     0
284
     8
285
     0
286
     0
287
     3
288
     0
  0
ENDTAB
  0
TABLE
  2
BLOCK_RECORD
  5
1
330
0
100
AcDbSymbolTable
 70
     1
  0
BLOCK_RECORD
  5
1F
330
1
100
AcDbSymbolTableRecord
100
AcDbBlockTableRecord
  2
*MODEL_SPACE
  0
BLOCK_RECORD
  5
1B
330
1
100
AcDbSymbolTableRecord
100
AcDbBlockTableRecord
  2
*PAPER_SPACE
  0
ENDTAB
  0
ENDSEC
  0
SECTION
  2
BLOCKS
  0
BLOCK
  5
20
330
1F
100
AcDbEntity
  8
0
100
AcDbBlockBegin
  2
*MODEL_SPACE
 70
     0
 10
0.0
 20
0.0
 30
0.0
  3
*MODEL_SPACE
  1

  0
ENDBLK
  5
21
330
1F
100
AcDbEntity
  8
0
100
AcDbBlockEnd
  0
BLOCK
  5
1C
330
1B
100
AcDbEntity
 67
     1
  8
0
100
AcDbBlockBegin
  2
*PAPER_SPACE
  1

  0
ENDBLK
  5
1D
330
1B
100
AcDbEntity
 67
     1
  8
0
100
AcDbBlockEnd
  0
ENDSEC
  0
SECTION
  2
ENTITIES
  0
LWPOLYLINE
  5
100
100
AcDbEntity
  8
0
 62
7
100
AcDbPolyline
 90
4
 70
1
 10
143.077845
 20
626.835141
 30
0.0
 10
338.810128
 20
626.835141
 30
0.0
 10
338.810128
 20
774.236711
 30
0.0
 10
143.077845
 20
774.236711
 30
0.0
  0
LWPOLYLINE
  5
101
100
AcDbEntity
  8
0
 62
7
100
AcDbPolyline
 90
32
 70
1
 10
188.372932
 20
662.036674
 30
0.0
 10
190.632997
 20
661.351166
 30
0.0
 10
192.715890
 20
660.237866
 30
0.0
 10
194.541405
 20
658.739614
 30
0.0
 10
196.039800
 20
656.914016
 30
0.0
 10
197.152965
 20
654.831199
 30
0.0
 10
197.838382
 20
652.571224
 30
0.0
 10
198.069975
 20
650.220934
 30
0.0
 10
197.838382
 20
647.870644
 30
0.0
 10
197.152965
 20
645.610639
 30
0.0
 10
196.039800
 20
643.527821
 30
0.0
 10
194.541405
 20
641.702231
 30
0.0
 10
192.715890
 20
640.204031
 30
0.0
 10
190.632997
 20
639.090724
 30
0.0
 10
188.372932
 20
638.405164
 30
0.0
 10
186.022725
 20
638.173691
 30
0.0
 10
183.672525
 20
638.405164
 30
0.0
 10
181.412460
 20
639.090724
 30
0.0
 10
179.329560
 20
640.204031
 30
0.0
 10
177.504052
 20
641.702231
 30
0.0
 10
176.005942
 20
643.527821
 30
0.0
 10
174.892492
 20
645.610639
 30
0.0
 10
174.207075
 20
647.870644
 30
0.0
 10
173.975482
 20
650.220934
 30
0.0
 10
174.207075
 20
652.571224
 30
0.0
 10
174.892492
 20
654.831199
 30
0.0
 10
176.005942
 20
656.914016
 30
0.0
 10
177.504052
 20
658.739614
 30
0.0
 10
179.329560
 20
660.237866
 30
0.0
 10
181.412460
 20
661.351166
 30
0.0
 10
183.672525
 20
662.036674
 30
0.0
 10
186.022725
 20
662.268206
 30
0.0
  0
LWPOLYLINE
  5
102
100
AcDbEntity
  8
0
 62
7
100
AcDbPolyline
 90
32
 70
1
 10
305.900377
 20
656.348216
 30
0.0
 10
306.963937
 20
656.025604
 30
0.0
 10
307.944037
 20
655.501706
 30
0.0
 10
308.803140
 20
654.796646
 30
0.0
 10
309.508200
 20
653.937551
 30
0.0
 10
310.032097
 20
652.957444
 30
0.0
 10
310.354710
 20
651.893884
 30
0.0
 10
310.463670
 20
650.787889
 30
0.0
 10
310.354710
 20
649.681871
 30
0.0
 10
310.032097
 20
648.618311
 30
0.0
 10
309.508200
 20
647.638174
 30
0.0
 10
308.803140
 20
646.779079
 30
0.0
 10
307.944037
 20
646.074019
 30
0.0
 10
306.963937
 20
645.550144
 30
0.0
 10
305.900377
 20
645.227509
 30
0.0
 10
304.794382
 20
645.118601
 30
0.0
 10
303.688357
 20
645.227509
 30
0.0
 10
302.624797
 20
645.550144
 30
0.0
 10
301.644667
 20
646.074019
 30
0.0
 10
300.785565
 20
646.779079
 30
0.0
 10
300.080505
 20
647.638174
 30
0.0
 10
299.556637
 20
648.618311
 30
0.0
 10
299.233995
 20
649.681871
 30
0.0
 10
299.125087
 20
650.787889
 30
0.0
 10
299.233995
 20
651.893884
 30
0.0
 10
299.556637
 20
652.957444
 30
0.0
 10
300.080505
 20
653.937551
 30
0.0
 10
300.785565
 20
654.796646
 30
0.0
 10
301.644667
 20
655.501706
 30
0.0
 10
302.624797
 20
656.025604
 30
0.0
 10
303.688357
 20
656.348216
 30
0.0
 10
304.794382
 20
656.457184
 30
0.0
  0
LWPOLYLINE
  5
103
100
AcDbEntity
  8
0
 62
7
100
AcDbPolyline
 90
32
 70
1
 10
235.034317
 20
656.348216
 30
0.0
 10
236.097877
 20
656.025604
 30
0.0
 10
237.077812
 20
655.501706
 30
0.0
 10
237.936997
 20
654.796646
 30
0.0
 10
238.641975
 20
653.937551
 30
0.0
 10
239.166097
 20
652.957444
 30
0.0
 10
239.488680
 20
651.893884
 30
0.0
 10
239.597527
 20
650.787889
 30
0.0
 10
239.488680
 20
649.681871
 30
0.0
 10
239.166097
 20
648.618311
 30
0.0
 10
238.641975
 20
647.638174
 30
0.0
 10
237.936997
 20
646.779079
 30
0.0
 10
237.077812
 20
646.074019
 30
0.0
 10
236.097877
 20
645.550144
 30
0.0
 10
235.034317
 20
645.227509
 30
0.0
 10
233.928240
 20
645.118601
 30
0.0
 10
232.822162
 20
645.227509
 30
0.0
 10
231.758602
 20
645.550144
 30
0.0
 10
230.778667
 20
646.074019
 30
0.0
 10
229.919482
 20
646.779079
 30
0.0
 10
229.214505
 20
647.638174
 30
0.0
 10
228.690667
 20
648.618311
 30
0.0
 10
228.367800
 20
649.681871
 30
0.0
 10
228.258945
 20
650.787889
 30
0.0
 10
228.367800
 20
651.893884
 30
0.0
 10
228.690667
 20
652.957444
 30
0.0
 10
229.214505
 20
653.937551
 30
0.0
 10
229.919482
 20
654.796646
 30
0.0
 10
230.778667
 20
655.501706
 30
0.0
 10
231.758602
 20
656.025604
 30
0.0
 10
232.822162
 20
656.348216
 30
0.0
 10
233.928240
 20
656.457184
 30
0.0
  0
LWPOLYLINE
  5
104
100
AcDbEntity
  8
0
 62
7
100
AcDbPolyline
 90
32
 70
1
 10
164.168175
 20
684.694789
 30
0.0
 10
165.231735
 20
684.371921
 30
0.0
 10
166.211670
 20
683.848076
 30
0.0
 10
167.070855
 20
683.143106
 30
0.0
 10
167.775832
 20
682.283921
 30
0.0
 10
168.299955
 20
681.303986
 30
0.0
 10
168.622537
 20
680.240426
 30
0.0
 10
168.731392
 20
679.134349
 30
0.0
 10
168.622537
 20
678.028271
 30
0.0
 10
168.299955
 20
676.964711
 30
0.0
 10
167.775832
 20
675.984776
 30
0.0
 10
167.070855
 20
675.125591
 30
0.0
 10
166.211670
 20
674.420614
 30
0.0
 10
165.231735
 20
673.896491
 30
0.0
 10
164.168175
 20
673.573909
 30
0.0
 10
163.062097
 20
673.465054
 30
0.0
 10
161.956020
 20
673.573909
 30
0.0
 10
160.892460
 20
673.896491
 30
0.0
 10
159.912525
 20
674.420614
 30
0.0
 10
159.053340
 20
675.125591
 30
0.0
 10
158.348362
 20
675.984776
 30
0.0
 10
157.824525
 20
676.964711
 30
0.0
 10
157.501657
 20
678.028271
 30
0.0
 10
157.392810
 20
679.134349
 30
0.0
 10
157.501657
 20
680.240426
 30
0.0
 10
157.824525
 20
681.303986
 30
0.0
 10
158.348362
 20
682.283921
 30
0.0
 10
159.053340
 20
683.143106
 30
0.0
 10
159.912525
 20
683.848076
 30
0.0
 10
160.892460
 20
684.371921
 30
0.0
 10
161.956020
 20
684.694789
 30
0.0
 10
163.062097
 20
684.803636
 30
0.0
  0
LWPOLYLINE
  5
105
100
AcDbEntity
  8
0
 62
7
100
AcDbPolyline
 90
12
 70
1
 10
310.463670
 20
745.890251
 30
0.0
 10
310.463670
 20
677.858756
 30
0.0
 10
290.621100
 20
677.858756
 30
0.0
 10
278.573910
 20
684.945371
 30
0.0
 10
251.644777
 20
684.945371
 30
0.0
 10
240.320362
 20
678.283954
 30
0.0
 10
221.739262
 20
678.283954
 30
0.0
 10
221.739262
 20
745.890251
 30
0.0
 10
239.597527
 20
745.890251
 30
0.0
 10
251.644777
 20
738.803636
 30
0.0
 10
278.573910
 20
738.803636
 30
0.0
 10
290.621152
 20
745.890251
 30
0.0
  0
LWPOLYLINE
  5
106
100
AcDbEntity
  8
0
 62
7
100
AcDbPolyline
 90
32
 70
1
 10
164.168175
 20
741.387701
 30
0.0
 10
165.231735
 20
741.064834
 30
0.0
 10
166.211670
 20
740.540996
 30
0.0
 10
167.070855
 20
739.836019
 30
0.0
 10
167.775832
 20
738.976834
 30
0.0
 10
168.299955
 20
737.996899
 30
0.0
 10
168.622537
 20
736.933339
 30
0.0
 10
168.731392
 20
735.827261
 30
0.0
 10
168.622537
 20
734.721184
 30
0.0
 10
168.299955
 20
733.657624
 30
0.0
 10
167.775832
 20
732.677689
 30
0.0
 10
167.070855
 20
731.818504
 30
0.0
 10
166.211670
 20
731.113526
 30
0.0
 10
165.231735
 20
730.589404
 30
0.0
 10
164.168175
 20
730.266821
 30
0.0
 10
163.062097
 20
730.157966
 30
0.0
 10
161.956020
 20
730.266821
 30
0.0
 10
160.892460
 20
730.589404
 30
0.0
 10
159.912525
 20
731.113526
 30
0.0
 10
159.053340
 20
731.818504
 30
0.0
 10
158.348362
 20
732.677689
 30
0.0
 10
157.824525
 20
733.657624
 30
0.0
 10
157.501657
 20
734.721184
 30
0.0
 10
157.392810
 20
735.827261
 30
0.0
 10
157.501657
 20
736.933339
 30
0.0
 10
157.824525
 20
737.996899
 30
0.0
 10
158.348362
 20
738.976834
 30
0.0
 10
159.053340
 20
739.836019
 30
0.0
 10
159.912525
 20
740.540996
 30
0.0
 10
160.892460
 20
741.064834
 30
0.0
 10
161.956020
 20
741.387701
 30
0.0
 10
163.062097
 20
741.496549
 30
0.0
  0
LWPOLYLINE
  5
107
100
AcDbEntity
  8
0
 62
7
100
AcDbPolyline
 90
32
 70
1
 10
305.900377
 20
765.482194
 30
0.0
 10
306.963937
 20
765.159326
 30
0.0
 10
307.944037
 20
764.635481
 30
0.0
 10
308.803140
 20
763.930504
 30
0.0
 10
309.508200
 20
763.071326
 30
0.0
 10
310.032097
 20
762.091384
 30
0.0
 10
310.354710
 20
761.027831
 30
0.0
 10
310.463670
 20
759.921746
 30
0.0
 10
310.354710
 20
758.815669
 30
0.0
 10
310.032097
 20
757.752109
 30
0.0
 10
309.508200
 20
756.772174
 30
0.0
 10
308.803140
 20
755.912996
 30
0.0
 10
307.944037
 20
755.208019
 30
0.0
 10
306.963937
 20
754.683889
 30
0.0
 10
305.900377
 20
754.361306
 30
0.0
 10
304.794382
 20
754.252459
 30
0.0
 10
303.688357
 20
754.361306
 30
0.0
 10
302.624797
 20
754.683889
 30
0.0
 10
301.644667
 20
755.208019
 30
0.0
 10
300.785565
 20
755.912996
 30
0.0
 10
300.080505
 20
756.772174
 30
0.0
 10
299.556637
 20
757.752109
 30
0.0
 10
299.233995
 20
758.815669
 30
0.0
 10
299.125087
 20
759.921746
 30
0.0
 10
299.233995
 20
761.027831
 30
0.0
 10
299.556637
 20
762.091384
 30
0.0
 10
300.080505
 20
763.071326
 30
0.0
 10
300.785565
 20
763.930504
 30
0.0
 10
301.644667
 20
764.635481
 30
0.0
 10
302.624797
 20
765.159326
 30
0.0
 10
303.688357
 20
765.482194
 30
0.0
 10
304.794382
 20
765.591041
 30
0.0
  0
LWPOLYLINE
  5
108
100
AcDbEntity
  8
0
 62
7
100
AcDbPolyline
 90
32
 70
1
 10
235.034317
 20
765.482194
 30
0.0
 10
236.097877
 20
765.159326
 30
0.0
 10
237.077812
 20
764.635481
 30
0.0
 10
237.936997
 20
763.930504
 30
0.0
 10
238.641975
 20
763.071326
 30
0.0
 10
239.166097
 20
762.091384
 30
0.0
 10
239.488680
 20
761.027831
 30
0.0
 10
239.597527
 20
759.921746
 30
0.0
 10
239.488680
 20
758.815669
 30
0.0
 10
239.166097
 20
757.752109
 30
0.0
 10
238.641975
 20
756.772174
 30
0.0
 10
237.936997
 20
755.912996
 30
0.0
 10
237.077812
 20
755.208019
 30
0.0
 10
236.097877
 20
754.683889
 30
0.0
 10
235.034317
 20
754.361306
 30
0.0
 10
233.928240
 20
754.252459
 30
0.0
 10
232.822162
 20
754.361306
 30
0.0
 10
231.758602
 20
754.683889
 30
0.0
 10
230.778667
 20
755.208019
 30
0.0
 10
229.919482
 20
755.912996
 30
0.0
 10
229.214505
 20
756.772174
 30
0.0
 10
228.690667
 20
757.752109
 30
0.0
 10
228.367800
 20
758.815669
 30
0.0
 10
228.258945
 20
759.921746
 30
0.0
 10
228.367800
 20
761.027831
 30
0.0
 10
228.690667
 20
762.091384
 30
0.0
 10
229.214505
 20
763.071326
 30
0.0
 10
229.919482
 20
763.930504
 30
0.0
 10
230.778667
 20
764.635481
 30
0.0
 10
231.758602
 20
765.159326
 30
0.0
 10
232.822162
 20
765.482194
 30
0.0
 10
233.928240
 20
765.591041
 30
0.0
  0
LWPOLYLINE
  5
109
100
AcDbEntity
  8
0
 62
7
100
AcDbPolyline
 90
4
 70
1
 10
58.038472
 20
626.835169
 30
0.0
 10
143.077845
 20
626.835169
 30
0.0
 10
143.077845
 20
774.236794
 30
0.0
 10
58.038472
 20
774.236794
 30
0.0
  0
LWPOLYLINE
  5
10a
100
AcDbEntity
  8
0
 62
7
100
AcDbPolyline
 90
23
 70
1
 10
132.845284
 20
713.041294
 30
0.0
 10
133.908844
 20
712.718419
 30
0.0
 10
134.888979
 20
712.194619
 30
0.0
 10
135.748075
 20
711.489619
 30
0.0
 10
136.453136
 20
710.630419
 30
0.0
 10
136.977007
 20
709.650544
 30
0.0
 10
137.299646
 20
708.586969
 30
0.0
 10
137.408554
 20
707.480869
 30
0.0
 10
137.299646
 20
706.374769
 30
0.0
 10
136.977007
 20
705.311269
 30
0.0
 10
136.453136
 20
704.331319
 30
0.0
 10
135.748075
 20
703.472119
 30
0.0
 10
134.888979
 20
702.767119
 30
0.0
 10
133.908844
 20
702.243019
 30
0.0
 10
132.845284
 20
701.920444
 30
0.0
 10
131.739262
 20
701.811544
 30
0.0
 10
130.633268
 20
701.920444
 30
0.0
 10
129.569710
 20
702.243019
 30
0.0
 10
128.904616
 20
702.598444
 30
0.0
 10
128.904616
 20
712.362994
 30
0.0
 10
129.569710
 20
712.718419
 30
0.0
 10
130.633268
 20
713.041294
 30
0.0
 10
131.739262
 20
713.150194
 30
0.0
  0
LWPOLYLINE
  5
10b
100
AcDbEntity
  8
0
 62
7
100
AcDbPolyline
 90
32
 70
1
 10
70.483136
 20
713.041294
 30
0.0
 10
71.546695
 20
712.718419
 30
0.0
 10
72.526633
 20
712.194619
 30
0.0
 10
73.385813
 20
711.489619
 30
0.0
 10
74.090790
 20
710.630419
 30
0.0
 10
74.614915
 20
709.650544
 30
0.0
 10
74.937499
 20
708.586969
 30
0.0
 10
75.046349
 20
707.480869
 30
0.0
 10
74.937499
 20
706.374769
 30
0.0
 10
74.614915
 20
705.311269
 30
0.0
 10
74.090790
 20
704.331319
 30
0.0
 10
73.385813
 20
703.472119
 30
0.0
 10
72.526633
 20
702.767119
 30
0.0
 10
71.546695
 20
702.243019
 30
0.0
 10
70.483136
 20
701.920444
 30
0.0
 10
69.377057
 20
701.811544
 30
0.0
 10
68.270979
 20
701.920444
 30
0.0
 10
67.207417
 20
702.243019
 30
0.0
 10
66.227482
 20
702.767119
 30
0.0
 10
65.368305
 20
703.472119
 30
0.0
 10
64.663327
 20
704.331319
 30
0.0
 10
64.139482
 20
705.311269
 30
0.0
 10
63.816615
 20
706.374769
 30
0.0
 10
63.707767
 20
707.480869
 30
0.0
 10
63.816615
 20
708.586969
 30
0.0
 10
64.139482
 20
709.650544
 30
0.0
 10
64.663327
 20
710.630419
 30
0.0
 10
65.368305
 20
711.489619
 30
0.0
 10
66.227482
 20
712.194619
 30
0.0
 10
67.207417
 20
712.718419
 30
0.0
 10
68.270979
 20
713.041294
 30
0.0
 10
69.377057
 20
713.150194
 30
0.0
  0
LWPOLYLINE
  5
10c
100
AcDbEntity
  8
0
 62
7
100
AcDbPolyline
 90
4
 70
1
 10
253.770758
 20
466.982651
 30
0.0
 10
58.038473
 20
466.982651
 30
0.0
 10
58.038473
 20
614.384216
 30
0.0
 10
253.770757
 20
614.384216
 30
0.0
  0
LWPOLYLINE
  5
10d
100
AcDbEntity
  8
0
 62
7
100
AcDbPolyline
 90
32
 70
1
 10
208.475670
 20
502.184179
 30
0.0
 10
206.215605
 20
501.498679
 30
0.0
 10
204.132712
 20
500.385371
 30
0.0
 10
202.307198
 20
498.887111
 30
0.0
 10
200.808795
 20
497.061529
 30
0.0
 10
199.695638
 20
494.978704
 30
0.0
 10
199.010220
 20
492.718729
 30
0.0
 10
198.778620
 20
490.368431
 30
0.0
 10
199.010228
 20
488.018149
 30
0.0
 10
199.695630
 20
485.758136
 30
0.0
 10
200.808803
 20
483.675326
 30
0.0
 10
202.307198
 20
481.849736
 30
0.0
 10
204.132712
 20
480.351536
 30
0.0
 10
206.215605
 20
479.238229
 30
0.0
 10
208.475670
 20
478.552669
 30
0.0
 10
210.825878
 20
478.321196
 30
0.0
 10
213.176085
 20
478.552661
 30
0.0
 10
215.436143
 20
479.238229
 30
0.0
 10
217.519035
 20
480.351536
 30
0.0
 10
219.344558
 20
481.849729
 30
0.0
 10
220.842660
 20
483.675326
 30
0.0
 10
221.956110
 20
485.758151
 30
0.0
 10
222.641520
 20
488.018156
 30
0.0
 10
222.873120
 20
490.368431
 30
0.0
 10
222.641528
 20
492.718721
 30
0.0
 10
221.956118
 20
494.978696
 30
0.0
 10
220.842660
 20
497.061521
 30
0.0
 10
219.344558
 20
498.887119
 30
0.0
 10
217.519043
 20
500.385371
 30
0.0
 10
215.436143
 20
501.498671
 30
0.0
 10
213.176085
 20
502.184171
 30
0.0
 10
210.825885
 20
502.415711
 30
0.0
  0
LWPOLYLINE
  5
10e
100
AcDbEntity
  8
0
 62
7
100
AcDbPolyline
 90
32
 70
1
 10
90.948225
 20
496.495721
 30
0.0
 10
89.884672
 20
496.173109
 30
0.0
 10
88.904557
 20
495.649219
 30
0.0
 10
88.045462
 20
494.944144
 30
0.0
 10
87.340402
 20
494.085056
 30
0.0
 10
86.816505
 20
493.104949
 30
0.0
 10
86.493892
 20
492.041389
 30
0.0
 10
86.384932
 20
490.935394
 30
0.0
 10
86.493893
 20
489.829369
 30
0.0
 10
86.816512
 20
488.765816
 30
0.0
 10
87.340402
 20
487.785679
 30
0.0
 10
88.045462
 20
486.926584
 30
0.0
 10
88.904565
 20
486.221516
 30
0.0
 10
89.884665
 20
485.697649
 30
0.0
 10
90.948225
 20
485.375014
 30
0.0
 10
92.054228
 20
485.266106
 30
0.0
 10
93.160252
 20
485.375014
 30
0.0
 10
94.223805
 20
485.697649
 30
0.0
 10
95.203935
 20
486.221524
 30
0.0
 10
96.063038
 20
486.926591
 30
0.0
 10
96.768098
 20
487.785679
 30
0.0
 10
97.291965
 20
488.765816
 30
0.0
 10
97.614615
 20
489.829376
 30
0.0
 10
97.723515
 20
490.935394
 30
0.0
 10
97.614607
 20
492.041389
 30
0.0
 10
97.291965
 20
493.104941
 30
0.0
 10
96.768098
 20
494.085056
 30
0.0
 10
96.063038
 20
494.944151
 30
0.0
 10
95.203935
 20
495.649219
 30
0.0
 10
94.223805
 20
496.173101
 30
0.0
 10
93.160252
 20
496.495721
 30
0.0
 10
92.054213
 20
496.604681
 30
0.0
  0
LWPOLYLINE
  5
10f
100
AcDbEntity
  8
0
 62
7
100
AcDbPolyline
 90
32
 70
1
 10
161.814285
 20
496.495721
 30
0.0
 10
160.750733
 20
496.173109
 30
0.0
 10
159.770790
 20
495.649204
 30
0.0
 10
158.911605
 20
494.944151
 30
0.0
 10
158.206620
 20
494.085049
 30
0.0
 10
157.682505
 20
493.104949
 30
0.0
 10
157.359923
 20
492.041381
 30
0.0
 10
157.251075
 20
490.935394
 30
0.0
 10
157.359923
 20
489.829376
 30
0.0
 10
157.682505
 20
488.765809
 30
0.0
 10
158.206627
 20
487.785679
 30
0.0
 10
158.911613
 20
486.926584
 30
0.0
 10
159.770790
 20
486.221524
 30
0.0
 10
160.750725
 20
485.697649
 30
0.0
 10
161.814285
 20
485.375014
 30
0.0
 10
162.920363
 20
485.266106
 30
0.0
 10
164.026440
 20
485.375014
 30
0.0
 10
165.090000
 20
485.697649
 30
0.0
 10
166.069935
 20
486.221524
 30
0.0
 10
166.929120
 20
486.926584
 30
0.0
 10
167.634098
 20
487.785679
 30
0.0
 10
168.157935
 20
488.765816
 30
0.0
 10
168.480803
 20
489.829369
 30
0.0
 10
168.589665
 20
490.935394
 30
0.0
 10
168.480802
 20
492.041389
 30
0.0
 10
168.157935
 20
493.104941
 30
0.0
 10
167.634098
 20
494.085056
 30
0.0
 10
166.929127
 20
494.944151
 30
0.0
 10
166.069935
 20
495.649211
 30
0.0
 10
165.089993
 20
496.173109
 30
0.0
 10
164.026448
 20
496.495721
 30
0.0
 10
162.920363
 20
496.604689
 30
0.0
  0
LWPOLYLINE
  5
110
100
AcDbEntity
  8
0
 62
7
100
AcDbPolyline
 90
32
 70
1
 10
232.680428
 20
524.842286
 30
0.0
 10
231.616868
 20
524.519419
 30
0.0
 10
230.636933
 20
523.995581
 30
0.0
 10
229.777748
 20
523.290611
 30
0.0
 10
229.072763
 20
522.431426
 30
0.0
 10
228.548640
 20
521.451491
 30
0.0
 10
228.226073
 20
520.387924
 30
0.0
 10
228.117210
 20
519.281846
 30
0.0
 10
228.226065
 20
518.175784
 30
0.0
 10
228.548655
 20
517.112209
 30
0.0
 10
229.072770
 20
516.132281
 30
0.0
 10
229.777755
 20
515.273096
 30
0.0
 10
230.636933
 20
514.568111
 30
0.0
 10
231.616860
 20
514.043996
 30
0.0
 10
232.680428
 20
513.721414
 30
0.0
 10
233.786513
 20
513.612559
 30
0.0
 10
234.892590
 20
513.721406
 30
0.0
 10
235.956143
 20
514.043996
 30
0.0
 10
236.936070
 20
514.568119
 30
0.0
 10
237.795255
 20
515.273089
 30
0.0
 10
238.500240
 20
516.132274
 30
0.0
 10
239.024070
 20
517.112209
 30
0.0
 10
239.346945
 20
518.175769
 30
0.0
 10
239.455793
 20
519.281854
 30
0.0
 10
239.346945
 20
520.387931
 30
0.0
 10
239.024085
 20
521.451491
 30
0.0
 10
238.500240
 20
522.431426
 30
0.0
 10
237.795263
 20
523.290619
 30
0.0
 10
236.936078
 20
523.995581
 30
0.0
 10
235.956143
 20
524.519426
 30
0.0
 10
234.892583
 20
524.842301
 30
0.0
 10
233.786505
 20
524.951141
 30
0.0
  0
LWPOLYLINE
  5
111
100
AcDbEntity
  8
0
 62
7
100
AcDbPolyline
 90
12
 70
1
 10
86.384932
 20
586.037756
 30
0.0
 10
86.384932
 20
518.006261
 30
0.0
 10
106.227502
 20
518.006261
 30
0.0
 10
118.274692
 20
525.092876
 30
0.0
 10
145.203833
 20
525.092884
 30
0.0
 10
156.528233
 20
518.431459
 30
0.0
 10
175.109340
 20
518.431459
 30
0.0
 10
175.109348
 20
586.037764
 30
0.0
 10
157.251075
 20
586.037756
 30
0.0
 10
145.203825
 20
578.951141
 30
0.0
 10
118.274692
 20
578.951141
 30
0.0
 10
106.227450
 20
586.037749
 30
0.0
  0
LWPOLYLINE
  5
112
100
AcDbEntity
  8
0
 62
7
100
AcDbPolyline
 90
32
 70
1
 10
232.680435
 20
581.535206
 30
0.0
 10
231.616875
 20
581.212346
 30
0.0
 10
230.636933
 20
580.688501
 30
0.0
 10
229.777740
 20
579.983516
 30
0.0
 10
229.072778
 20
579.124339
 30
0.0
 10
228.548655
 20
578.144404
 30
0.0
 10
228.226065
 20
577.080844
 30
0.0
 10
228.117218
 20
575.974766
 30
0.0
 10
228.226065
 20
574.868696
 30
0.0
 10
228.548655
 20
573.805129
 30
0.0
 10
229.072778
 20
572.825194
 30
0.0
 10
229.777740
 20
571.966009
 30
0.0
 10
230.636925
 20
571.261031
 30
0.0
 10
231.616860
 20
570.736909
 30
0.0
 10
232.680428
 20
570.414326
 30
0.0
 10
233.786505
 20
570.305471
 30
0.0
 10
234.892590
 20
570.414334
 30
0.0
 10
235.956143
 20
570.736909
 30
0.0
 10
236.936078
 20
571.261031
 30
0.0
 10
237.795255
 20
571.966009
 30
0.0
 10
238.500240
 20
572.825186
 30
0.0
 10
239.024078
 20
573.805129
 30
0.0
 10
239.346945
 20
574.868689
 30
0.0
 10
239.455793
 20
575.974766
 30
0.0
 10
239.346945
 20
577.080844
 30
0.0
 10
239.024078
 20
578.144404
 30
0.0
 10
238.500240
 20
579.124339
 30
0.0
 10
237.795255
 20
579.983524
 30
0.0
 10
236.936070
 20
580.688494
 30
0.0
 10
235.956143
 20
581.212339
 30
0.0
 10
234.892583
 20
581.535214
 30
0.0
 10
233.786505
 20
581.644054
 30
0.0
  0
LWPOLYLINE
  5
113
100
AcDbEntity
  8
0
 62
7
100
AcDbPolyline
 90
32
 70
1
 10
90.948225
 20
605.629706
 30
0.0
 10
89.884665
 20
605.306831
 30
0.0
 10
88.904565
 20
604.782986
 30
0.0
 10
88.045462
 20
604.078009
 30
0.0
 10
87.340395
 20
603.218831
 30
0.0
 10
86.816505
 20
602.238889
 30
0.0
 10
86.493892
 20
601.175336
 30
0.0
 10
86.384932
 20
600.069251
 30
0.0
 10
86.493893
 20
598.963174
 30
0.0
 10
86.816498
 20
597.899614
 30
0.0
 10
87.340410
 20
596.919679
 30
0.0
 10
88.045470
 20
596.060501
 30
0.0
 10
88.904565
 20
595.355524
 30
0.0
 10
89.884665
 20
594.831394
 30
0.0
 10
90.948232
 20
594.508819
 30
0.0
 10
92.054220
 20
594.399964
 30
0.0
 10
93.160245
 20
594.508811
 30
0.0
 10
94.223812
 20
594.831401
 30
0.0
 10
95.203935
 20
595.355524
 30
0.0
 10
96.063038
 20
596.060501
 30
0.0
 10
96.768098
 20
596.919679
 30
0.0
 10
97.291972
 20
597.899606
 30
0.0
 10
97.614600
 20
598.963174
 30
0.0
 10
97.723515
 20
600.069251
 30
0.0
 10
97.614600
 20
601.175336
 30
0.0
 10
97.291965
 20
602.238889
 30
0.0
 10
96.768098
 20
603.218831
 30
0.0
 10
96.063038
 20
604.078016
 30
0.0
 10
95.203935
 20
604.782986
 30
0.0
 10
94.223805
 20
605.306831
 30
0.0
 10
93.160245
 20
605.629706
 30
0.0
 10
92.054220
 20
605.738546
 30
0.0
  0
LWPOLYLINE
  5
114
100
AcDbEntity
  8
0
 62
7
100
AcDbPolyline
 90
32
 70
1
 10
161.814277
 20
605.629699
 30
0.0
 10
160.750725
 20
605.306831
 30
0.0
 10
159.770790
 20
604.782986
 30
0.0
 10
158.911605
 20
604.078009
 30
0.0
 10
158.206627
 20
603.218831
 30
0.0
 10
157.682505
 20
602.238889
 30
0.0
 10
157.359922
 20
601.175336
 30
0.0
 10
157.251075
 20
600.069244
 30
0.0
 10
157.359922
 20
598.963174
 30
0.0
 10
157.682505
 20
597.899614
 30
0.0
 10
158.206635
 20
596.919671
 30
0.0
 10
158.911605
 20
596.060501
 30
0.0
 10
159.770782
 20
595.355524
 30
0.0
 10
160.750725
 20
594.831394
 30
0.0
 10
161.814292
 20
594.508819
 30
0.0
 10
162.920362
 20
594.399964
 30
0.0
 10
164.026440
 20
594.508811
 30
0.0
 10
165.090000
 20
594.831394
 30
0.0
 10
166.069935
 20
595.355524
 30
0.0
 10
166.929127
 20
596.060501
 30
0.0
 10
167.634097
 20
596.919679
 30
0.0
 10
168.157942
 20
597.899614
 30
0.0
 10
168.480795
 20
598.963174
 30
0.0
 10
168.589665
 20
600.069251
 30
0.0
 10
168.480802
 20
601.175336
 30
0.0
 10
168.157935
 20
602.238889
 30
0.0
 10
167.634097
 20
603.218831
 30
0.0
 10
166.929120
 20
604.078009
 30
0.0
 10
166.069935
 20
604.782979
 30
0.0
 10
165.090000
 20
605.306831
 30
0.0
 10
164.026440
 20
605.629699
 30
0.0
 10
162.920363
 20
605.738546
 30
0.0
  0
LWPOLYLINE
  5
115
100
AcDbEntity
  8
0
 62
7
100
AcDbPolyline
 90
4
 70
1
 10
338.810123
 20
466.982674
 30
0.0
 10
253.770750
 20
466.982674
 30
0.0
 10
253.770750
 20
614.384299
 30
0.0
 10
338.810122
 20
614.384299
 30
0.0
  0
LWPOLYLINE
  5
116
100
AcDbEntity
  8
0
 62
7
100
AcDbPolyline
 90
23
 70
1
 10
264.003310
 20
553.188799
 30
0.0
 10
262.939751
 20
552.865924
 30
0.0
 10
261.959616
 20
552.342124
 30
0.0
 10
261.100520
 20
551.637124
 30
0.0
 10
260.395459
 20
550.777924
 30
0.0
 10
259.871587
 20
549.798049
 30
0.0
 10
259.548949
 20
548.734474
 30
0.0
 10
259.440041
 20
547.628374
 30
0.0
 10
259.548949
 20
546.522274
 30
0.0
 10
259.871587
 20
545.458774
 30
0.0
 10
260.395459
 20
544.478824
 30
0.0
 10
261.100520
 20
543.619624
 30
0.0
 10
261.959616
 20
542.914624
 30
0.0
 10
262.939751
 20
542.390524
 30
0.0
 10
264.003310
 20
542.067949
 30
0.0
 10
265.109332
 20
541.959049
 30
0.0
 10
266.215327
 20
542.067949
 30
0.0
 10
267.278885
 20
542.390524
 30
0.0
 10
267.943979
 20
542.745949
 30
0.0
 10
267.943979
 20
552.510499
 30
0.0
 10
267.278885
 20
552.865924
 30
0.0
 10
266.215327
 20
553.188799
 30
0.0
 10
265.109332
 20
553.297699
 30
0.0
  0
LWPOLYLINE
  5
117
100
AcDbEntity
  8
0
 62
7
100
AcDbPolyline
 90
32
 70
1
 10
326.365459
 20
553.188799
 30
0.0
 10
325.301899
 20
552.865924
 30
0.0
 10
324.321962
 20
552.342124
 30
0.0
 10
323.462782
 20
551.637124
 30
0.0
 10
322.757805
 20
550.777924
 30
0.0
 10
322.233679
 20
549.798049
 30
0.0
 10
321.911096
 20
548.734474
 30
0.0
 10
321.802246
 20
547.628374
 30
0.0
 10
321.911096
 20
546.522274
 30
0.0
 10
322.233679
 20
545.458774
 30
0.0
 10
322.757805
 20
544.478824
 30
0.0
 10
323.462782
 20
543.619624
 30
0.0
 10
324.321962
 20
542.914624
 30
0.0
 10
325.301899
 20
542.390524
 30
0.0
 10
326.365459
 20
542.067949
 30
0.0
 10
327.471538
 20
541.959049
 30
0.0
 10
328.577616
 20
542.067949
 30
0.0
 10
329.641177
 20
542.390524
 30
0.0
 10
330.621112
 20
542.914624
 30
0.0
 10
331.480290
 20
543.619624
 30
0.0
 10
332.185268
 20
544.478824
 30
0.0
 10
332.709113
 20
545.458774
 30
0.0
 10
333.031980
 20
546.522274
 30
0.0
 10
333.140828
 20
547.628374
 30
0.0
 10
333.031980
 20
548.734474
 30
0.0
 10
332.709113
 20
549.798049
 30
0.0
 10
332.185268
 20
550.777924
 30
0.0
 10
331.480290
 20
551.637124
 30
0.0
 10
330.621112
 20
552.342124
 30
0.0
 10
329.641178
 20
552.865924
 30
0.0
 10
328.577616
 20
553.188799
 30
0.0
 10
327.471538
 20
553.297699
 30
0.0
  0
LWPOLYLINE
  5
118
100
AcDbEntity
  8
0
 62
7
100
AcDbPolyline
 90
9
 70
0
 10
136.712325
 20
360.337466
 30
0.0
 10
280.071675
 20
360.337466
 30
0.0
 10
281.406825
 20
359.605616
 30
0.0
 10
282.690900
 20
358.823741
 30
0.0
 10
283.005525
 20
358.731791
 30
0.0
 10
283.291875
 20
358.574291
 30
0.0
 10
284.743200
 20
358.221041
 30
0.0
 10
286.205850
 20
357.791966
 30
0.0
 10
286.540350
 20
357.784466
 30
0.0
  0
LWPOLYLINE
  5
119
100
AcDbEntity
  8
0
 62
7
100
AcDbPolyline
 90
3
 70
0
 10
286.540350
 20
357.784241
 30
0.0
 10
286.857825
 20
357.706916
 30
0.0
 10
288.365850
 20
357.742166
 30
0.0
  0
LWPOLYLINE
  5
11a
100
AcDbEntity
  8
0
 62
7
100
AcDbPolyline
 90
2
 70
0
 10
288.365850
 20
357.741866
 30
0.0
 10
289.873875
 20
357.706616
 30
0.0
  0
LWPOLYLINE
  5
11b
100
AcDbEntity
  8
0
 62
7
100
AcDbPolyline
 90
3
 70
0
 10
289.873875
 20
357.706916
 30
0.0
 10
290.191425
 20
357.784316
 30
0.0
 10
290.520225
 20
357.791816
 30
0.0
  0
LWPOLYLINE
  5
11c
100
AcDbEntity
  8
0
 62
7
100
AcDbPolyline
 90
19
 70
0
 10
290.520225
 20
357.791966
 30
0.0
 10
291.968700
 20
358.216316
 30
0.0
 10
293.439900
 20
358.574291
 30
0.0
 10
293.726175
 20
358.731791
 30
0.0
 10
294.040800
 20
358.823741
 30
0.0
 10
295.353300
 20
359.623691
 30
0.0
 10
296.654400
 20
360.337466
 30
0.0
 10
440.019420
 20
360.337466
 30
0.0
 10
443.557058
 20
348.998891
 30
0.0
 10
473.320837
 20
348.998891
 30
0.0
 10
476.869815
 20
360.337466
 30
0.0
 10
515.137530
 20
360.337466
 30
0.0
 10
515.137530
 20
383.008916
 30
0.0
 10
61.594200
 20
383.008916
 30
0.0
 10
61.594200
 20
360.337466
 30
0.0
 10
99.861975
 20
360.337466
 30
0.0
 10
103.399575
 20
348.998891
 30
0.0
 10
133.163325
 20
348.998891
 30
0.0
 10
136.712325
 20
360.337466
 30
0.0
  0
LWPOLYLINE
  5
11d
100
AcDbEntity
  8
0
 62
7
100
AcDbPolyline
 90
26
 70
1
 10
489.620048
 20
366.001091
 30
0.0
 10
488.157375
 20
366.193766
 30
0.0
 10
486.785408
 20
366.766391
 30
0.0
 10
485.617530
 20
367.667816
 30
0.0
 10
484.716113
 20
368.835716
 30
0.0
 10
484.143518
 20
370.207691
 30
0.0
 10
483.950760
 20
371.670341
 30
0.0
 10
484.143518
 20
373.138691
 30
0.0
 10
484.716113
 20
374.505041
 30
0.0
 10
485.617530
 20
375.684191
 30
0.0
 10
486.785408
 20
376.585616
 30
0.0
 10
488.157375
 20
377.146841
 30
0.0
 10
489.620048
 20
377.339666
 30
0.0
 10
500.964300
 20
377.339666
 30
0.0
 10
502.426980
 20
377.146841
 30
0.0
 10
503.798948
 20
376.585616
 30
0.0
 10
504.972495
 20
375.684191
 30
0.0
 10
505.868243
 20
374.505041
 30
0.0
 10
506.440838
 20
373.138691
 30
0.0
 10
506.633595
 20
371.670341
 30
0.0
 10
506.440837
 20
370.207691
 30
0.0
 10
505.868243
 20
368.835716
 30
0.0
 10
504.972495
 20
367.667816
 30
0.0
 10
503.798947
 20
366.766391
 30
0.0
 10
502.426980
 20
366.193766
 30
0.0
 10
500.964300
 20
366.001091
 30
0.0
  0
LWPOLYLINE
  5
11e
100
AcDbEntity
  8
0
 62
7
100
AcDbPolyline
 90
26
 70
1
 10
75.767475
 20
366.001091
 30
0.0
 10
74.299125
 20
366.193766
 30
0.0
 10
72.932775
 20
366.766391
 30
0.0
 10
71.753625
 20
367.667816
 30
0.0
 10
70.852200
 20
368.835716
 30
0.0
 10
70.290900
 20
370.207691
 30
0.0
 10
70.098150
 20
371.670341
 30
0.0
 10
70.290900
 20
373.138691
 30
0.0
 10
70.852200
 20
374.505041
 30
0.0
 10
71.753625
 20
375.684191
 30
0.0
 10
72.932775
 20
376.585616
 30
0.0
 10
74.299125
 20
377.146841
 30
0.0
 10
75.767475
 20
377.339666
 30
0.0
 10
87.100350
 20
377.339666
 30
0.0
 10
88.574400
 20
377.146841
 30
0.0
 10
89.934975
 20
376.585616
 30
0.0
 10
91.114200
 20
375.684191
 30
0.0
 10
92.015625
 20
374.505041
 30
0.0
 10
92.576925
 20
373.138691
 30
0.0
 10
92.769675
 20
371.670341
 30
0.0
 10
92.576925
 20
370.207691
 30
0.0
 10
92.015625
 20
368.835716
 30
0.0
 10
91.114200
 20
367.667816
 30
0.0
 10
89.934975
 20
366.766391
 30
0.0
 10
88.574400
 20
366.193766
 30
0.0
 10
87.100350
 20
366.001091
 30
0.0
  0
LWPOLYLINE
  5
11f
100
AcDbEntity
  8
0
 62
7
100
AcDbPolyline
 90
24
 70
1
 10
287.186700
 20
367.287941
 30
0.0
 10
286.092525
 20
367.747241
 30
0.0
 10
285.157050
 20
368.467241
 30
0.0
 10
284.431425
 20
369.408341
 30
0.0
 10
283.983525
 20
370.502516
 30
0.0
 10
283.824750
 20
371.670341
 30
0.0
 10
283.983525
 20
372.849566
 30
0.0
 10
284.431425
 20
373.943741
 30
0.0
 10
285.157050
 20
374.879141
 30
0.0
 10
286.092525
 20
375.604841
 30
0.0
 10
287.186700
 20
376.052666
 30
0.0
 10
288.365850
 20
376.211441
 30
0.0
 10
289.533750
 20
376.052666
 30
0.0
 10
290.627925
 20
375.604841
 30
0.0
 10
291.569025
 20
374.879141
 30
0.0
 10
292.289025
 20
373.943741
 30
0.0
 10
292.748250
 20
372.849566
 30
0.0
 10
292.895625
 20
371.670341
 30
0.0
 10
292.748250
 20
370.502516
 30
0.0
 10
292.289025
 20
369.408341
 30
0.0
 10
291.569025
 20
368.467241
 30
0.0
 10
290.627925
 20
367.747241
 30
0.0
 10
289.533750
 20
367.287941
 30
0.0
 10
288.365850
 20
367.140566
 30
0.0
  0
LWPOLYLINE
  5
120
100
AcDbEntity
  8
0
 62
7
100
AcDbPolyline
 90
19
 70
1
 10
60.962820
 20
431.545054
 30
0.0
 10
60.962820
 20
397.534954
 30
0.0
 10
99.230536
 20
397.534954
 30
0.0
 10
102.773844
 20
389.031079
 30
0.0
 10
132.537708
 20
389.031079
 30
0.0
 10
136.081016
 20
397.534954
 30
0.0
 10
279.445972
 20
397.534954
 30
0.0
 10
282.291952
 20
395.720779
 30
0.0
 10
285.512108
 20
394.717354
 30
0.0
 10
288.885337
 20
394.575604
 30
0.0
 10
292.179480
 20
395.312629
 30
0.0
 10
295.172580
 20
396.877354
 30
0.0
 10
295.881247
 20
397.534954
 30
0.0
 10
439.388017
 20
397.534954
 30
0.0
 10
442.931325
 20
389.031079
 30
0.0
 10
472.695105
 20
389.031079
 30
0.0
 10
476.232742
 20
397.534954
 30
0.0
 10
514.506128
 20
397.534954
 30
0.0
 10
514.506128
 20
431.545054
 30
0.0
  0
LWPOLYLINE
  5
121
100
AcDbEntity
  8
0
 62
7
100
AcDbPolyline
 90
26
 70
1
 10
68.293214
 20
418.551079
 30
0.0
 10
69.466757
 20
419.446804
 30
0.0
 10
70.833056
 20
420.013729
 30
0.0
 10
72.301402
 20
420.212179
 30
0.0
 10
83.639986
 20
420.212179
 30
0.0
 10
85.102663
 20
420.013729
 30
0.0
 10
86.474631
 20
419.446804
 30
0.0
 10
87.648175
 20
418.551079
 30
0.0
 10
88.549591
 20
417.377554
 30
0.0
 10
89.110852
 20
416.005579
 30
0.0
 10
89.309277
 20
414.542854
 30
0.0
 10
89.110852
 20
413.074579
 30
0.0
 10
88.549592
 20
411.708229
 30
0.0
 10
87.648175
 20
410.534704
 30
0.0
 10
86.474631
 20
409.633279
 30
0.0
 10
85.102663
 20
409.066354
 30
0.0
 10
83.639986
 20
408.873604
 30
0.0
 10
72.301402
 20
408.873604
 30
0.0
 10
70.833056
 20
409.066354
 30
0.0
 10
69.466757
 20
409.633279
 30
0.0
 10
68.293214
 20
410.534704
 30
0.0
 10
67.391798
 20
411.708229
 30
0.0
 10
66.824865
 20
413.074579
 30
0.0
 10
66.632108
 20
414.542854
 30
0.0
 10
66.824865
 20
416.005579
 30
0.0
 10
67.391798
 20
417.377554
 30
0.0
  0
LWPOLYLINE
  5
122
100
AcDbEntity
  8
0
 62
7
100
AcDbPolyline
 90
26
 70
1
 10
286.560930
 20
403.073854
 30
0.0
 10
285.466755
 20
403.527454
 30
0.0
 10
284.525655
 20
404.247454
 30
0.0
 10
283.805655
 20
405.188554
 30
0.0
 10
283.352107
 20
406.277029
 30
0.0
 10
283.199040
 20
407.450629
 30
0.0
 10
283.352107
 20
408.624154
 30
0.0
 10
283.805655
 20
409.718329
 30
0.0
 10
284.525655
 20
410.659429
 30
0.0
 10
285.466755
 20
411.379429
 30
0.0
 10
286.249118
 20
411.708229
 30
0.0
 10
286.560930
 20
411.832954
 30
0.0
 10
287.734478
 20
411.986029
 30
0.0
 10
288.908018
 20
411.832954
 30
0.0
 10
289.219830
 20
411.708229
 30
0.0
 10
290.002192
 20
411.379429
 30
0.0
 10
290.943292
 20
410.659429
 30
0.0
 10
291.663293
 20
409.718329
 30
0.0
 10
292.116832
 20
408.624154
 30
0.0
 10
292.269908
 20
407.450629
 30
0.0
 10
292.116832
 20
406.277029
 30
0.0
 10
291.663293
 20
405.188554
 30
0.0
 10
290.943292
 20
404.247454
 30
0.0
 10
290.002193
 20
403.527454
 30
0.0
 10
288.908018
 20
403.073854
 30
0.0
 10
287.734478
 20
402.920779
 30
0.0
  0
LWPOLYLINE
  5
123
100
AcDbEntity
  8
0
 62
7
100
AcDbPolyline
 90
26
 70
1
 10
505.803765
 20
413.074579
 30
0.0
 10
505.242503
 20
411.708229
 30
0.0
 10
504.341085
 20
410.534704
 30
0.0
 10
503.167545
 20
409.633279
 30
0.0
 10
501.795577
 20
409.066354
 30
0.0
 10
500.332898
 20
408.873604
 30
0.0
 10
488.994315
 20
408.873604
 30
0.0
 10
487.525972
 20
409.066354
 30
0.0
 10
486.159668
 20
409.633279
 30
0.0
 10
484.986128
 20
410.534704
 30
0.0
 10
484.084710
 20
411.708229
 30
0.0
 10
483.517778
 20
413.074579
 30
0.0
 10
483.325028
 20
414.542854
 30
0.0
 10
483.517778
 20
416.005579
 30
0.0
 10
484.084710
 20
417.377554
 30
0.0
 10
484.986128
 20
418.551079
 30
0.0
 10
486.159668
 20
419.446804
 30
0.0
 10
487.525972
 20
420.013729
 30
0.0
 10
488.994315
 20
420.212179
 30
0.0
 10
500.332898
 20
420.212179
 30
0.0
 10
501.795577
 20
420.013729
 30
0.0
 10
503.167545
 20
419.446804
 30
0.0
 10
504.341085
 20
418.551079
 30
0.0
 10
505.242503
 20
417.377554
 30
0.0
 10
505.803765
 20
416.005579
 30
0.0
 10
506.002192
 20
414.542854
 30
0.0
  0
LWPOLYLINE
  5
124
100
AcDbEntity
  8
0
 62
7
100
AcDbPolyline
 90
9
 70
0
 10
136.396650
 20
267.391159
 30
0.0
 10
279.756000
 20
267.391159
 30
0.0
 10
281.091150
 20
266.659309
 30
0.0
 10
282.375225
 20
265.877434
 30
0.0
 10
282.689850
 20
265.785484
 30
0.0
 10
282.976200
 20
265.627984
 30
0.0
 10
284.427525
 20
265.274734
 30
0.0
 10
285.890175
 20
264.845659
 30
0.0
 10
286.224675
 20
264.838159
 30
0.0
  0
LWPOLYLINE
  5
125
100
AcDbEntity
  8
0
 62
7
100
AcDbPolyline
 90
3
 70
0
 10
286.224675
 20
264.837934
 30
0.0
 10
286.542150
 20
264.760609
 30
0.0
 10
288.050175
 20
264.795859
 30
0.0
  0
LWPOLYLINE
  5
126
100
AcDbEntity
  8
0
 62
7
100
AcDbPolyline
 90
2
 70
0
 10
288.050175
 20
264.795559
 30
0.0
 10
289.558200
 20
264.760309
 30
0.0
  0
LWPOLYLINE
  5
127
100
AcDbEntity
  8
0
 62
7
100
AcDbPolyline
 90
3
 70
0
 10
289.558200
 20
264.760609
 30
0.0
 10
289.875750
 20
264.838009
 30
0.0
 10
290.204550
 20
264.845509
 30
0.0
  0
LWPOLYLINE
  5
128
100
AcDbEntity
  8
0
 62
7
100
AcDbPolyline
 90
19
 70
0
 10
290.204550
 20
264.845659
 30
0.0
 10
291.653025
 20
265.270009
 30
0.0
 10
293.124225
 20
265.627984
 30
0.0
 10
293.410500
 20
265.785484
 30
0.0
 10
293.725125
 20
265.877434
 30
0.0
 10
295.037625
 20
266.677384
 30
0.0
 10
296.338725
 20
267.391159
 30
0.0
 10
439.703745
 20
267.391159
 30
0.0
 10
443.241382
 20
256.052584
 30
0.0
 10
473.005162
 20
256.052584
 30
0.0
 10
476.554140
 20
267.391159
 30
0.0
 10
514.821855
 20
267.391159
 30
0.0
 10
514.821855
 20
290.062609
 30
0.0
 10
61.278525
 20
290.062609
 30
0.0
 10
61.278525
 20
267.391159
 30
0.0
 10
99.546300
 20
267.391159
 30
0.0
 10
103.083900
 20
256.052584
 30
0.0
 10
132.847650
 20
256.052584
 30
0.0
 10
136.396650
 20
267.391159
 30
0.0
  0
LWPOLYLINE
  5
129
100
AcDbEntity
  8
0
 62
7
100
AcDbPolyline
 90
26
 70
1
 10
489.304372
 20
273.054784
 30
0.0
 10
487.841700
 20
273.247459
 30
0.0
 10
486.469732
 20
273.820084
 30
0.0
 10
485.301855
 20
274.721509
 30
0.0
 10
484.400437
 20
275.889409
 30
0.0
 10
483.827842
 20
277.261384
 30
0.0
 10
483.635085
 20
278.724034
 30
0.0
 10
483.827842
 20
280.192384
 30
0.0
 10
484.400437
 20
281.558734
 30
0.0
 10
485.301855
 20
282.737884
 30
0.0
 10
486.469732
 20
283.639309
 30
0.0
 10
487.841700
 20
284.200534
 30
0.0
 10
489.304372
 20
284.393359
 30
0.0
 10
500.648625
 20
284.393359
 30
0.0
 10
502.111305
 20
284.200534
 30
0.0
 10
503.483272
 20
283.639309
 30
0.0
 10
504.656820
 20
282.737884
 30
0.0
 10
505.552568
 20
281.558734
 30
0.0
 10
506.125162
 20
280.192384
 30
0.0
 10
506.317920
 20
278.724034
 30
0.0
 10
506.125162
 20
277.261384
 30
0.0
 10
505.552568
 20
275.889409
 30
0.0
 10
504.656820
 20
274.721509
 30
0.0
 10
503.483272
 20
273.820084
 30
0.0
 10
502.111305
 20
273.247459
 30
0.0
 10
500.648625
 20
273.054784
 30
0.0
  0
LWPOLYLINE
  5
12a
100
AcDbEntity
  8
0
 62
7
100
AcDbPolyline
 90
26
 70
1
 10
75.451800
 20
273.054784
 30
0.0
 10
73.983450
 20
273.247459
 30
0.0
 10
72.617100
 20
273.820084
 30
0.0
 10
71.437950
 20
274.721509
 30
0.0
 10
70.536525
 20
275.889409
 30
0.0
 10
69.975225
 20
277.261384
 30
0.0
 10
69.782475
 20
278.724034
 30
0.0
 10
69.975225
 20
280.192384
 30
0.0
 10
70.536525
 20
281.558734
 30
0.0
 10
71.437950
 20
282.737884
 30
0.0
 10
72.617100
 20
283.639309
 30
0.0
 10
73.983450
 20
284.200534
 30
0.0
 10
75.451800
 20
284.393359
 30
0.0
 10
86.784675
 20
284.393359
 30
0.0
 10
88.258725
 20
284.200534
 30
0.0
 10
89.619300
 20
283.639309
 30
0.0
 10
90.798525
 20
282.737884
 30
0.0
 10
91.699950
 20
281.558734
 30
0.0
 10
92.261250
 20
280.192384
 30
0.0
 10
92.454000
 20
278.724034
 30
0.0
 10
92.261250
 20
277.261384
 30
0.0
 10
91.699950
 20
275.889409
 30
0.0
 10
90.798525
 20
274.721509
 30
0.0
 10
89.619300
 20
273.820084
 30
0.0
 10
88.258725
 20
273.247459
 30
0.0
 10
86.784675
 20
273.054784
 30
0.0
  0
LWPOLYLINE
  5
12b
100
AcDbEntity
  8
0
 62
7
100
AcDbPolyline
 90
24
 70
1
 10
286.871025
 20
274.341634
 30
0.0
 10
285.776850
 20
274.800934
 30
0.0
 10
284.841375
 20
275.520934
 30
0.0
 10
284.115750
 20
276.462034
 30
0.0
 10
283.667850
 20
277.556209
 30
0.0
 10
283.509075
 20
278.724034
 30
0.0
 10
283.667850
 20
279.903259
 30
0.0
 10
284.115750
 20
280.997434
 30
0.0
 10
284.841375
 20
281.932834
 30
0.0
 10
285.776850
 20
282.658534
 30
0.0
 10
286.871025
 20
283.106359
 30
0.0
 10
288.050175
 20
283.265134
 30
0.0
 10
289.218075
 20
283.106359
 30
0.0
 10
290.312250
 20
282.658534
 30
0.0
 10
291.253350
 20
281.932834
 30
0.0
 10
291.973350
 20
280.997434
 30
0.0
 10
292.432575
 20
279.903259
 30
0.0
 10
292.579950
 20
278.724034
 30
0.0
 10
292.432575
 20
277.556209
 30
0.0
 10
291.973350
 20
276.462034
 30
0.0
 10
291.253350
 20
275.520934
 30
0.0
 10
290.312250
 20
274.800934
 30
0.0
 10
289.218075
 20
274.341634
 30
0.0
 10
288.050175
 20
274.194259
 30
0.0
  0
LWPOLYLINE
  5
12c
100
AcDbEntity
  8
0
 62
7
100
AcDbPolyline
 90
19
 70
1
 10
60.647130
 20
338.598709
 30
0.0
 10
60.647130
 20
304.588609
 30
0.0
 10
98.914847
 20
304.588609
 30
0.0
 10
102.458154
 20
296.084734
 30
0.0
 10
132.222018
 20
296.084734
 30
0.0
 10
135.765326
 20
304.588609
 30
0.0
 10
279.130283
 20
304.588609
 30
0.0
 10
281.976262
 20
302.774434
 30
0.0
 10
285.196418
 20
301.771009
 30
0.0
 10
288.569647
 20
301.629259
 30
0.0
 10
291.863790
 20
302.366284
 30
0.0
 10
294.856890
 20
303.931009
 30
0.0
 10
295.565558
 20
304.588609
 30
0.0
 10
439.072328
 20
304.588609
 30
0.0
 10
442.615635
 20
296.084734
 30
0.0
 10
472.379415
 20
296.084734
 30
0.0
 10
475.917052
 20
304.588609
 30
0.0
 10
514.190438
 20
304.588609
 30
0.0
 10
514.190438
 20
338.598709
 30
0.0
  0
LWPOLYLINE
  5
12d
100
AcDbEntity
  8
0
 62
7
100
AcDbPolyline
 90
26
 70
1
 10
67.977524
 20
325.604734
 30
0.0
 10
69.151067
 20
326.500459
 30
0.0
 10
70.517366
 20
327.067384
 30
0.0
 10
71.985713
 20
327.265834
 30
0.0
 10
83.324296
 20
327.265834
 30
0.0
 10
84.786973
 20
327.067384
 30
0.0
 10
86.158941
 20
326.500459
 30
0.0
 10
87.332485
 20
325.604734
 30
0.0
 10
88.233902
 20
324.431209
 30
0.0
 10
88.795162
 20
323.059234
 30
0.0
 10
88.993587
 20
321.596509
 30
0.0
 10
88.795162
 20
320.128234
 30
0.0
 10
88.233902
 20
318.761884
 30
0.0
 10
87.332485
 20
317.588359
 30
0.0
 10
86.158941
 20
316.686934
 30
0.0
 10
84.786973
 20
316.120009
 30
0.0
 10
83.324296
 20
315.927259
 30
0.0
 10
71.985713
 20
315.927259
 30
0.0
 10
70.517366
 20
316.120009
 30
0.0
 10
69.151067
 20
316.686934
 30
0.0
 10
67.977524
 20
317.588359
 30
0.0
 10
67.076108
 20
318.761884
 30
0.0
 10
66.509175
 20
320.128234
 30
0.0
 10
66.316418
 20
321.596509
 30
0.0
 10
66.509175
 20
323.059234
 30
0.0
 10
67.076108
 20
324.431209
 30
0.0
  0
LWPOLYLINE
  5
12e
100
AcDbEntity
  8
0
 62
7
100
AcDbPolyline
 90
26
 70
1
 10
286.245240
 20
310.127509
 30
0.0
 10
285.151065
 20
310.581109
 30
0.0
 10
284.209965
 20
311.301109
 30
0.0
 10
283.489965
 20
312.242209
 30
0.0
 10
283.036418
 20
313.330684
 30
0.0
 10
282.883350
 20
314.504284
 30
0.0
 10
283.036418
 20
315.677809
 30
0.0
 10
283.489965
 20
316.771984
 30
0.0
 10
284.209965
 20
317.713084
 30
0.0
 10
285.151065
 20
318.433084
 30
0.0
 10
285.933427
 20
318.761884
 30
0.0
 10
286.245240
 20
318.886609
 30
0.0
 10
287.418788
 20
319.039684
 30
0.0
 10
288.592328
 20
318.886609
 30
0.0
 10
288.904140
 20
318.761884
 30
0.0
 10
289.686503
 20
318.433084
 30
0.0
 10
290.627602
 20
317.713084
 30
0.0
 10
291.347602
 20
316.771984
 30
0.0
 10
291.801142
 20
315.677809
 30
0.0
 10
291.954218
 20
314.504284
 30
0.0
 10
291.801142
 20
313.330684
 30
0.0
 10
291.347602
 20
312.242209
 30
0.0
 10
290.627602
 20
311.301109
 30
0.0
 10
289.686503
 20
310.581109
 30
0.0
 10
288.592328
 20
310.127509
 30
0.0
 10
287.418788
 20
309.974434
 30
0.0
  0
LWPOLYLINE
  5
12f
100
AcDbEntity
  8
0
 62
7
100
AcDbPolyline
 90
26
 70
1
 10
505.488075
 20
320.128234
 30
0.0
 10
504.926812
 20
318.761884
 30
0.0
 10
504.025395
 20
317.588359
 30
0.0
 10
502.851855
 20
316.686934
 30
0.0
 10
501.479888
 20
316.120009
 30
0.0
 10
500.017208
 20
315.927259
 30
0.0
 10
488.678625
 20
315.927259
 30
0.0
 10
487.210282
 20
316.120009
 30
0.0
 10
485.843978
 20
316.686934
 30
0.0
 10
484.670438
 20
317.588359
 30
0.0
 10
483.769020
 20
318.761884
 30
0.0
 10
483.202088
 20
320.128234
 30
0.0
 10
483.009338
 20
321.596509
 30
0.0
 10
483.202088
 20
323.059234
 30
0.0
 10
483.769020
 20
324.431209
 30
0.0
 10
484.670438
 20
325.604734
 30
0.0
 10
485.843978
 20
326.500459
 30
0.0
 10
487.210282
 20
327.067384
 30
0.0
 10
488.678625
 20
327.265834
 30
0.0
 10
500.017208
 20
327.265834
 30
0.0
 10
501.479888
 20
327.067384
 30
0.0
 10
502.851855
 20
326.500459
 30
0.0
 10
504.025395
 20
325.604734
 30
0.0
 10
504.926812
 20
324.431209
 30
0.0
 10
505.488075
 20
323.059234
 30
0.0
 10
505.686502
 20
321.596509
 30
0.0
  0
LWPOLYLINE
  5
130
100
AcDbEntity
  8
0
 62
7
100
AcDbPolyline
 90
6
 70
1
 10
507.466155
 20
637.109936
 30
0.0
 10
464.379541
 20
637.109936
 30
0.0
 10
464.379541
 20
756.165064
 30
0.0
 10
385.576391
 20
756.165064
 30
0.0
 10
385.576391
 20
784.511539
 30
0.0
 10
507.466155
 20
784.511539
 30
0.0
  0
LWPOLYLINE
  5
131
100
AcDbEntity
  8
0
 62
7
100
AcDbPolyline
 90
32
 70
1
 10
490.769527
 20
673.851514
 30
0.0
 10
489.705967
 20
673.528864
 30
0.0
 10
488.726029
 20
673.004764
 30
0.0
 10
487.866848
 20
672.299764
 30
0.0
 10
487.161871
 20
671.440639
 30
0.0
 10
486.637745
 20
670.460689
 30
0.0
 10
486.315163
 20
669.397114
 30
0.0
 10
486.206312
 20
668.291014
 30
0.0
 10
486.315163
 20
667.184989
 30
0.0
 10
486.637745
 20
666.121414
 30
0.0
 10
487.161871
 20
665.141464
 30
0.0
 10
487.866848
 20
664.282264
 30
0.0
 10
488.726029
 20
663.577301
 30
0.0
 10
489.705967
 20
663.053464
 30
0.0
 10
490.769527
 20
662.730596
 30
0.0
 10
491.875605
 20
662.621749
 30
0.0
 10
492.981682
 20
662.730596
 30
0.0
 10
494.045242
 20
663.053464
 30
0.0
 10
495.025177
 20
663.577301
 30
0.0
 10
495.884362
 20
664.282264
 30
0.0
 10
496.589332
 20
665.141464
 30
0.0
 10
497.113178
 20
666.121414
 30
0.0
 10
497.436045
 20
667.184989
 30
0.0
 10
497.544893
 20
668.291014
 30
0.0
 10
497.436045
 20
669.397114
 30
0.0
 10
497.113178
 20
670.460689
 30
0.0
 10
496.589332
 20
671.440639
 30
0.0
 10
495.884363
 20
672.299764
 30
0.0
 10
495.025177
 20
673.004764
 30
0.0
 10
494.045242
 20
673.528864
 30
0.0
 10
492.981682
 20
673.851514
 30
0.0
 10
491.875605
 20
673.960339
 30
0.0
  0
LWPOLYLINE
  5
132
100
AcDbEntity
  8
0
 62
7
100
AcDbPolyline
 90
32
 70
1
 10
490.769527
 20
730.544314
 30
0.0
 10
489.705967
 20
730.221664
 30
0.0
 10
488.726029
 20
729.697789
 30
0.0
 10
487.866848
 20
728.992789
 30
0.0
 10
487.161871
 20
728.133664
 30
0.0
 10
486.637745
 20
727.153564
 30
0.0
 10
486.315163
 20
726.090064
 30
0.0
 10
486.206312
 20
724.983964
 30
0.0
 10
486.315163
 20
723.877864
 30
0.0
 10
486.637745
 20
722.814289
 30
0.0
 10
487.161871
 20
721.834339
 30
0.0
 10
487.866848
 20
720.975214
 30
0.0
 10
488.726029
 20
720.270214
 30
0.0
 10
489.705967
 20
719.746339
 30
0.0
 10
490.769527
 20
719.423539
 30
0.0
 10
491.875605
 20
719.314639
 30
0.0
 10
492.981682
 20
719.423539
 30
0.0
 10
494.045242
 20
719.746339
 30
0.0
 10
495.025177
 20
720.270214
 30
0.0
 10
495.884362
 20
720.975214
 30
0.0
 10
496.589332
 20
721.834339
 30
0.0
 10
497.113178
 20
722.814289
 30
0.0
 10
497.436045
 20
723.877864
 30
0.0
 10
497.544893
 20
724.983964
 30
0.0
 10
497.436045
 20
726.090064
 30
0.0
 10
497.113178
 20
727.153564
 30
0.0
 10
496.589332
 20
728.133664
 30
0.0
 10
495.884363
 20
728.992789
 30
0.0
 10
495.025177
 20
729.697789
 30
0.0
 10
494.045242
 20
730.221664
 30
0.0
 10
492.981682
 20
730.544314
 30
0.0
 10
491.875605
 20
730.653214
 30
0.0
  0
LWPOLYLINE
  5
133
100
AcDbEntity
  8
0
 62
7
100
AcDbPolyline
 90
32
 70
1
 10
490.769527
 20
775.898614
 30
0.0
 10
489.705967
 20
775.575964
 30
0.0
 10
488.726029
 20
775.052089
 30
0.0
 10
487.866848
 20
774.347014
 30
0.0
 10
487.161871
 20
773.487964
 30
0.0
 10
486.637745
 20
772.507864
 30
0.0
 10
486.315163
 20
771.444289
 30
0.0
 10
486.206312
 20
770.338264
 30
0.0
 10
486.315163
 20
769.232239
 30
0.0
 10
486.637745
 20
768.168664
 30
0.0
 10
487.161871
 20
767.188564
 30
0.0
 10
487.866848
 20
766.329439
 30
0.0
 10
488.726029
 20
765.624439
 30
0.0
 10
489.705967
 20
765.100564
 30
0.0
 10
490.769527
 20
764.777914
 30
0.0
 10
491.875605
 20
764.669014
 30
0.0
 10
492.981682
 20
764.777914
 30
0.0
 10
494.045242
 20
765.100564
 30
0.0
 10
495.025177
 20
765.624439
 30
0.0
 10
495.884362
 20
766.329439
 30
0.0
 10
496.589332
 20
767.188564
 30
0.0
 10
497.113178
 20
768.168664
 30
0.0
 10
497.436045
 20
769.232239
 30
0.0
 10
497.544893
 20
770.338264
 30
0.0
 10
497.436045
 20
771.444289
 30
0.0
 10
497.113178
 20
772.507864
 30
0.0
 10
496.589332
 20
773.487964
 30
0.0
 10
495.884363
 20
774.347014
 30
0.0
 10
495.025177
 20
775.052089
 30
0.0
 10
494.045242
 20
775.575964
 30
0.0
 10
492.981682
 20
775.898614
 30
0.0
 10
491.875605
 20
776.007589
 30
0.0
  0
LWPOLYLINE
  5
134
100
AcDbEntity
  8
0
 62
7
100
AcDbPolyline
 90
32
 70
1
 10
401.478271
 20
775.898614
 30
0.0
 10
400.414712
 20
775.575964
 30
0.0
 10
399.434605
 20
775.052089
 30
0.0
 10
398.575509
 20
774.347014
 30
0.0
 10
397.870448
 20
773.487964
 30
0.0
 10
397.346548
 20
772.507864
 30
0.0
 10
397.023937
 20
771.444289
 30
0.0
 10
396.914974
 20
770.338264
 30
0.0
 10
397.023937
 20
769.232239
 30
0.0
 10
397.346548
 20
768.168664
 30
0.0
 10
397.870448
 20
767.188564
 30
0.0
 10
398.575509
 20
766.329439
 30
0.0
 10
399.434605
 20
765.624439
 30
0.0
 10
400.414712
 20
765.100564
 30
0.0
 10
401.478271
 20
764.777914
 30
0.0
 10
402.584265
 20
764.669014
 30
0.0
 10
403.690287
 20
764.777914
 30
0.0
 10
404.753846
 20
765.100564
 30
0.0
 10
405.733981
 20
765.624439
 30
0.0
 10
406.593077
 20
766.329439
 30
0.0
 10
407.298139
 20
767.188564
 30
0.0
 10
407.822010
 20
768.168664
 30
0.0
 10
408.144649
 20
769.232239
 30
0.0
 10
408.253556
 20
770.338264
 30
0.0
 10
408.144649
 20
771.444289
 30
0.0
 10
407.822010
 20
772.507864
 30
0.0
 10
407.298139
 20
773.487964
 30
0.0
 10
406.593077
 20
774.347014
 30
0.0
 10
405.733981
 20
775.052089
 30
0.0
 10
404.753846
 20
775.575964
 30
0.0
 10
403.690287
 20
775.898614
 30
0.0
 10
402.584265
 20
776.007589
 30
0.0
  0
LWPOLYLINE
  5
135
100
AcDbEntity
  8
0
 62
7
100
AcDbPolyline
 90
6
 70
1
 10
507.466155
 20
478.323161
 30
0.0
 10
438.867701
 20
478.323161
 30
0.0
 10
438.867701
 20
597.378289
 30
0.0
 10
385.576391
 20
597.378289
 30
0.0
 10
385.576391
 20
625.724764
 30
0.0
 10
507.466155
 20
625.724764
 30
0.0
  0
LWPOLYLINE
  5
136
100
AcDbEntity
  8
0
 62
7
100
AcDbPolyline
 90
32
 70
1
 10
490.769527
 20
515.064739
 30
0.0
 10
489.705967
 20
514.742089
 30
0.0
 10
488.726029
 20
514.217989
 30
0.0
 10
487.866848
 20
513.512989
 30
0.0
 10
487.161871
 20
512.653864
 30
0.0
 10
486.637745
 20
511.673914
 30
0.0
 10
486.315163
 20
510.610339
 30
0.0
 10
486.206312
 20
509.504239
 30
0.0
 10
486.315163
 20
508.398214
 30
0.0
 10
486.637745
 20
507.334639
 30
0.0
 10
487.161871
 20
506.354689
 30
0.0
 10
487.866848
 20
505.495489
 30
0.0
 10
488.726029
 20
504.790526
 30
0.0
 10
489.705967
 20
504.266689
 30
0.0
 10
490.769527
 20
503.943821
 30
0.0
 10
491.875605
 20
503.834974
 30
0.0
 10
492.981682
 20
503.943821
 30
0.0
 10
494.045242
 20
504.266689
 30
0.0
 10
495.025177
 20
504.790526
 30
0.0
 10
495.884362
 20
505.495489
 30
0.0
 10
496.589332
 20
506.354689
 30
0.0
 10
497.113178
 20
507.334639
 30
0.0
 10
497.436045
 20
508.398214
 30
0.0
 10
497.544893
 20
509.504239
 30
0.0
 10
497.436045
 20
510.610339
 30
0.0
 10
497.113178
 20
511.673914
 30
0.0
 10
496.589332
 20
512.653864
 30
0.0
 10
495.884363
 20
513.512989
 30
0.0
 10
495.025177
 20
514.217989
 30
0.0
 10
494.045242
 20
514.742089
 30
0.0
 10
492.981682
 20
515.064739
 30
0.0
 10
491.875605
 20
515.173564
 30
0.0
  0
LWPOLYLINE
  5
137
100
AcDbEntity
  8
0
 62
7
100
AcDbPolyline
 90
32
 70
1
 10
490.769527
 20
571.757539
 30
0.0
 10
489.705967
 20
571.434889
 30
0.0
 10
488.726029
 20
570.911014
 30
0.0
 10
487.866848
 20
570.206014
 30
0.0
 10
487.161871
 20
569.346889
 30
0.0
 10
486.637745
 20
568.366789
 30
0.0
 10
486.315163
 20
567.303289
 30
0.0
 10
486.206312
 20
566.197189
 30
0.0
 10
486.315163
 20
565.091089
 30
0.0
 10
486.637745
 20
564.027514
 30
0.0
 10
487.161871
 20
563.047564
 30
0.0
 10
487.866848
 20
562.188439
 30
0.0
 10
488.726029
 20
561.483439
 30
0.0
 10
489.705967
 20
560.959564
 30
0.0
 10
490.769527
 20
560.636764
 30
0.0
 10
491.875605
 20
560.527864
 30
0.0
 10
492.981682
 20
560.636764
 30
0.0
 10
494.045242
 20
560.959564
 30
0.0
 10
495.025177
 20
561.483439
 30
0.0
 10
495.884362
 20
562.188439
 30
0.0
 10
496.589332
 20
563.047564
 30
0.0
 10
497.113178
 20
564.027514
 30
0.0
 10
497.436045
 20
565.091089
 30
0.0
 10
497.544893
 20
566.197189
 30
0.0
 10
497.436045
 20
567.303289
 30
0.0
 10
497.113178
 20
568.366789
 30
0.0
 10
496.589332
 20
569.346889
 30
0.0
 10
495.884363
 20
570.206014
 30
0.0
 10
495.025177
 20
570.911014
 30
0.0
 10
494.045242
 20
571.434889
 30
0.0
 10
492.981682
 20
571.757539
 30
0.0
 10
491.875605
 20
571.866439
 30
0.0
  0
LWPOLYLINE
  5
138
100
AcDbEntity
  8
0
 62
7
100
AcDbPolyline
 90
32
 70
1
 10
490.769527
 20
617.111839
 30
0.0
 10
489.705967
 20
616.789189
 30
0.0
 10
488.726029
 20
616.265314
 30
0.0
 10
487.866848
 20
615.560239
 30
0.0
 10
487.161871
 20
614.701189
 30
0.0
 10
486.637745
 20
613.721089
 30
0.0
 10
486.315163
 20
612.657514
 30
0.0
 10
486.206312
 20
611.551489
 30
0.0
 10
486.315163
 20
610.445464
 30
0.0
 10
486.637745
 20
609.381889
 30
0.0
 10
487.161871
 20
608.401789
 30
0.0
 10
487.866848
 20
607.542664
 30
0.0
 10
488.726029
 20
606.837664
 30
0.0
 10
489.705967
 20
606.313789
 30
0.0
 10
490.769527
 20
605.991139
 30
0.0
 10
491.875605
 20
605.882239
 30
0.0
 10
492.981682
 20
605.991139
 30
0.0
 10
494.045242
 20
606.313789
 30
0.0
 10
495.025177
 20
606.837664
 30
0.0
 10
495.884362
 20
607.542664
 30
0.0
 10
496.589332
 20
608.401789
 30
0.0
 10
497.113178
 20
609.381889
 30
0.0
 10
497.436045
 20
610.445464
 30
0.0
 10
497.544893
 20
611.551489
 30
0.0
 10
497.436045
 20
612.657514
 30
0.0
 10
497.113178
 20
613.721089
 30
0.0
 10
496.589332
 20
614.701189
 30
0.0
 10
495.884363
 20
615.560239
 30
0.0
 10
495.025177
 20
616.265314
 30
0.0
 10
494.045242
 20
616.789189
 30
0.0
 10
492.981682
 20
617.111839
 30
0.0
 10
491.875605
 20
617.220814
 30
0.0
  0
LWPOLYLINE
  5
139
100
AcDbEntity
  8
0
 62
7
100
AcDbPolyline
 90
32
 70
1
 10
401.478271
 20
617.111839
 30
0.0
 10
400.414712
 20
616.789189
 30
0.0
 10
399.434605
 20
616.265314
 30
0.0
 10
398.575509
 20
615.560239
 30
0.0
 10
397.870448
 20
614.701189
 30
0.0
 10
397.346548
 20
613.721089
 30
0.0
 10
397.023937
 20
612.657514
 30
0.0
 10
396.914974
 20
611.551489
 30
0.0
 10
397.023937
 20
610.445464
 30
0.0
 10
397.346548
 20
609.381889
 30
0.0
 10
397.870448
 20
608.401789
 30
0.0
 10
398.575509
 20
607.542664
 30
0.0
 10
399.434605
 20
606.837664
 30
0.0
 10
400.414712
 20
606.313789
 30
0.0
 10
401.478271
 20
605.991139
 30
0.0
 10
402.584265
 20
605.882239
 30
0.0
 10
403.690287
 20
605.991139
 30
0.0
 10
404.753846
 20
606.313789
 30
0.0
 10
405.733981
 20
606.837664
 30
0.0
 10
406.593077
 20
607.542664
 30
0.0
 10
407.298139
 20
608.401789
 30
0.0
 10
407.822010
 20
609.381889
 30
0.0
 10
408.144649
 20
610.445464
 30
0.0
 10
408.253556
 20
611.551489
 30
0.0
 10
408.144649
 20
612.657514
 30
0.0
 10
407.822010
 20
613.721089
 30
0.0
 10
407.298139
 20
614.701189
 30
0.0
 10
406.593077
 20
615.560239
 30
0.0
 10
405.733981
 20
616.265314
 30
0.0
 10
404.753846
 20
616.789189
 30
0.0
 10
403.690287
 20
617.111839
 30
0.0
 10
402.584265
 20
617.220814
 30
0.0
  0
ENDSEC
  0
SECTION
  2
OBJECTS
  0
DICTIONARY
  5
C
330
0
100
AcDbDictionary
  3
ACAD_GROUP
350
D
  3
ACAD_MLINESTYLE
350
17
  0
DICTIONARY
  5
D
330
C
100
AcDbDictionary
  0
DICTIONARY
  5
1A
330
C
100
AcDbDictionary
  0
DICTIONARY
  5
17
330
C
100
AcDbDictionary
  3
STANDARD
350
18
  0
DICTIONARY
  5
19
330
C
100
AcDbDictionary
  0
ENDSEC
  0
EOF
