  0
SECTION
  2
BLOCKS
  0
ENDSEC
  0
SECTION
  2
ENTITIES
  0
LINE
  8
0
 10
-330.606
 20
0.0019989
 11
-280.032
 21
0.0019989
  0
LINE
  8
0
 10
-280.032
 20
0.0019989
 11
-279.561
 21
-0.256165
  0
LINE
  8
0
 10
-279.561
 20
-0.256165
 11
-279.108
 21
-0.531998
  0
LINE
  8
0
 10
-279.108
 20
-0.531998
 11
-278.997
 21
-0.564438
  0
LINE
  8
0
 10
-278.997
 20
-0.564438
 11
-278.896
 21
-0.619995
  0
LINE
  8
0
 10
-278.896
 20
-0.619995
 11
-278.384
 21
-0.744614
  0
LINE
  8
0
 10
-278.384
 20
-0.744614
 11
-277.868
 21
-0.895996
  0
LINE
  8
0
 10
-277.868
 20
-0.895996
 11
-277.75
 21
-0.898727
  0
LINE
  8
0
 10
-277.75
 20
-0.898727
 11
-277.638
 21
-0.925995
  0
LINE
  8
0
 10
-277.638
 20
-0.925995
 11
-277.106
 21
-0.913651
  0
LINE
  8
0
 10
-277.106
 20
-0.913651
 11
-276.574
 21
-0.925995
  0
LINE
  8
0
 10
-276.574
 20
-0.925995
 11
-276.462
 21
-0.898682
  0
LINE
  8
0
 10
-276.462
 20
-0.898682
 11
-276.346
 21
-0.895996
  0
LINE
  8
0
 10
-276.346
 20
-0.895996
 11
-275.835
 21
-0.746292
  0
LINE
  8
0
 10
-275.835
 20
-0.746292
 11
-275.316
 21
-0.619995
  0
LINE
  8
0
 10
-275.316
 20
-0.619995
 11
-275.215
 21
-0.564438
  0
LINE
  8
0
 10
-275.215
 20
-0.564438
 11
-275.104
 21
-0.531998
  0
LINE
  8
0
 10
-275.104
 20
-0.531998
 11
-274.641
 21
-0.249786
  0
LINE
  8
0
 10
-274.641
 20
-0.249786
 11
-274.182
 21
0.0019989
  0
LINE
  8
0
 10
-274.182
 20
0.0019989
 11
-223.606
 21
0.0019989
  0
LINE
  8
0
 10
-223.606
 20
0.0019989
 11
-222.358
 21
-3.99799
  0
LINE
  8
0
 10
-222.358
 20
-3.99799
 11
-211.858
 21
-3.99799
  0
LINE
  8
0
 10
-211.858
 20
-3.99799
 11
-210.606
 21
0.0019989
  0
LINE
  8
0
 10
-210.606
 20
0.0019989
 11
-197.106
 21
0.0019989
  0
LINE
  8
0
 10
-197.106
 20
0.0019989
 11
-197.106
 21
8
  0
LINE
  8
0
 10
-197.106
 20
8
 11
-357.106
 21
8
  0
LINE
  8
0
 10
-357.106
 20
8
 11
-357.106
 21
0.0019989
  0
LINE
  8
0
 10
-357.106
 20
0.0019989
 11
-343.606
 21
0.0019989
  0
LINE
  8
0
 10
-343.606
 20
0.0019989
 11
-342.358
 21
-3.99799
  0
LINE
  8
0
 10
-342.358
 20
-3.99799
 11
-331.858
 21
-3.99799
  0
LINE
  8
0
 10
-331.858
 20
-3.99799
 11
-330.606
 21
0.0019989
  0
LINE
  8
0
 10
-206.108
 20
2
 11
-206.624
 21
2.06799
  0
LINE
  8
0
 10
-206.624
 20
2.06799
 11
-207.108
 21
2.26999
  0
LINE
  8
0
 10
-207.108
 20
2.26999
 11
-207.52
 21
2.588
  0
LINE
  8
0
 10
-207.52
 20
2.588
 11
-207.838
 21
3
  0
LINE
  8
0
 10
-207.838
 20
3
 11
-208.04
 21
3.48399
  0
LINE
  8
0
 10
-208.04
 20
3.48399
 11
-208.108
 21
4
  0
LINE
  8
0
 10
-208.108
 20
4
 11
-208.04
 21
4.51799
  0
LINE
  8
0
 10
-208.04
 20
4.51799
 11
-207.838
 21
5
  0
LINE
  8
0
 10
-207.838
 20
5
 11
-207.52
 21
5.416
  0
LINE
  8
0
 10
-207.52
 20
5.416
 11
-207.108
 21
5.73399
  0
LINE
  8
0
 10
-207.108
 20
5.73399
 11
-206.624
 21
5.93199
  0
LINE
  8
0
 10
-206.624
 20
5.93199
 11
-206.108
 21
6
  0
LINE
  8
0
 10
-206.108
 20
6
 11
-202.106
 21
6
  0
LINE
  8
0
 10
-202.106
 20
6
 11
-201.59
 21
5.93199
  0
LINE
  8
0
 10
-201.59
 20
5.93199
 11
-201.106
 21
5.73399
  0
LINE
  8
0
 10
-201.106
 20
5.73399
 11
-200.692
 21
5.416
  0
LINE
  8
0
 10
-200.692
 20
5.416
 11
-200.376
 21
5
  0
LINE
  8
0
 10
-200.376
 20
5
 11
-200.174
 21
4.51799
  0
LINE
  8
0
 10
-200.174
 20
4.51799
 11
-200.106
 21
4
  0
LINE
  8
0
 10
-200.106
 20
4
 11
-200.174
 21
3.48399
  0
LINE
  8
0
 10
-200.174
 20
3.48399
 11
-200.376
 21
3
  0
LINE
  8
0
 10
-200.376
 20
3
 11
-200.692
 21
2.588
  0
LINE
  8
0
 10
-200.692
 20
2.588
 11
-201.106
 21
2.26999
  0
LINE
  8
0
 10
-201.106
 20
2.26999
 11
-201.59
 21
2.06799
  0
LINE
  8
0
 10
-201.59
 20
2.06799
 11
-202.106
 21
2
  0
LINE
  8
0
 10
-202.106
 20
2
 11
-206.108
 21
2
  0
LINE
  8
0
 10
-352.106
 20
2
 11
-352.624
 21
2.06799
  0
LINE
  8
0
 10
-352.624
 20
2.06799
 11
-353.106
 21
2.26999
  0
LINE
  8
0
 10
-353.106
 20
2.26999
 11
-353.522
 21
2.588
  0
LINE
  8
0
 10
-353.522
 20
2.588
 11
-353.84
 21
3
  0
LINE
  8
0
 10
-353.84
 20
3
 11
-354.038
 21
3.48399
  0
LINE
  8
0
 10
-354.038
 20
3.48399
 11
-354.106
 21
4
  0
LINE
  8
0
 10
-354.106
 20
4
 11
-354.038
 21
4.51799
  0
LINE
  8
0
 10
-354.038
 20
4.51799
 11
-353.84
 21
5
  0
LINE
  8
0
 10
-353.84
 20
5
 11
-353.522
 21
5.416
  0
LINE
  8
0
 10
-353.522
 20
5.416
 11
-353.106
 21
5.73399
  0
LINE
  8
0
 10
-353.106
 20
5.73399
 11
-352.624
 21
5.93199
  0
LINE
  8
0
 10
-352.624
 20
5.93199
 11
-352.106
 21
6
  0
LINE
  8
0
 10
-352.106
 20
6
 11
-348.108
 21
6
  0
LINE
  8
0
 10
-348.108
 20
6
 11
-347.588
 21
5.93199
  0
LINE
  8
0
 10
-347.588
 20
5.93199
 11
-347.108
 21
5.73399
  0
LINE
  8
0
 10
-347.108
 20
5.73399
 11
-346.692
 21
5.416
  0
LINE
  8
0
 10
-346.692
 20
5.416
 11
-346.374
 21
5
  0
LINE
  8
0
 10
-346.374
 20
5
 11
-346.176
 21
4.51799
  0
LINE
  8
0
 10
-346.176
 20
4.51799
 11
-346.108
 21
4
  0
LINE
  8
0
 10
-346.108
 20
4
 11
-346.176
 21
3.48399
  0
LINE
  8
0
 10
-346.176
 20
3.48399
 11
-346.374
 21
3
  0
LINE
  8
0
 10
-346.374
 20
3
 11
-346.692
 21
2.588
  0
LINE
  8
0
 10
-346.692
 20
2.588
 11
-347.108
 21
2.26999
  0
LINE
  8
0
 10
-347.108
 20
2.26999
 11
-347.588
 21
2.06799
  0
LINE
  8
0
 10
-347.588
 20
2.06799
 11
-348.108
 21
2
  0
LINE
  8
0
 10
-348.108
 20
2
 11
-352.106
 21
2
  0
LINE
  8
0
 10
-277.522
 20
2.45399
 11
-277.908
 21
2.616
  0
LINE
  8
0
 10
-277.908
 20
2.616
 11
-278.238
 21
2.87
  0
LINE
  8
0
 10
-278.238
 20
2.87
 11
-278.494
 21
3.202
  0
LINE
  8
0
 10
-278.494
 20
3.202
 11
-278.652
 21
3.588
  0
LINE
  8
0
 10
-278.652
 20
3.588
 11
-278.708
 21
4
  0
LINE
  8
0
 10
-278.708
 20
4
 11
-278.652
 21
4.416
  0
LINE
  8
0
 10
-278.652
 20
4.416
 11
-278.494
 21
4.80199
  0
LINE
  8
0
 10
-278.494
 20
4.80199
 11
-278.238
 21
5.13199
  0
LINE
  8
0
 10
-278.238
 20
5.13199
 11
-277.908
 21
5.388
  0
LINE
  8
0
 10
-277.908
 20
5.388
 11
-277.522
 21
5.54599
  0
LINE
  8
0
 10
-277.522
 20
5.54599
 11
-277.106
 21
5.60199
  0
LINE
  8
0
 10
-277.106
 20
5.60199
 11
-276.694
 21
5.54599
  0
LINE
  8
0
 10
-276.694
 20
5.54599
 11
-276.308
 21
5.388
  0
LINE
  8
0
 10
-276.308
 20
5.388
 11
-275.976
 21
5.13199
  0
LINE
  8
0
 10
-275.976
 20
5.13199
 11
-275.722
 21
4.80199
  0
LINE
  8
0
 10
-275.722
 20
4.80199
 11
-275.56
 21
4.416
  0
LINE
  8
0
 10
-275.56
 20
4.416
 11
-275.508
 21
4
  0
LINE
  8
0
 10
-275.508
 20
4
 11
-275.56
 21
3.588
  0
LINE
  8
0
 10
-275.56
 20
3.588
 11
-275.722
 21
3.202
  0
LINE
  8
0
 10
-275.722
 20
3.202
 11
-275.976
 21
2.87
  0
LINE
  8
0
 10
-275.976
 20
2.87
 11
-276.308
 21
2.616
  0
LINE
  8
0
 10
-276.308
 20
2.616
 11
-276.694
 21
2.45399
  0
LINE
  8
0
 10
-276.694
 20
2.45399
 11
-277.106
 21
2.40199
  0
LINE
  8
0
 10
-277.106
 20
2.40199
 11
-277.522
 21
2.45399
  0
ENDSEC
  0
SECTION
  2
OBJECTS
  0
DICTIONARY
  0
ENDSEC
  0
EOF
