  0
SECTION
  2
BLOCKS
  0
ENDSEC
  0
SECTION
  2
ENTITIES
  0
LINE
  8
0
 10
33
 20
42
 11
8.79999
 21
42
  0
LINE
  8
0
 10
8.79999
 20
42
 11
8.79999
 21
0
  0
LINE
  8
0
 10
8.79999
 20
0
 11
-10
 21
0
  0
LINE
  8
0
 10
-10
 20
0
 11
-10
 21
-10
  0
LINE
  8
0
 10
-10
 20
-10
 11
33
 21
-10
  0
LINE
  8
0
 10
33
 20
-10
 11
33
 21
42
  0
LINE
  8
0
 10
27.1098
 20
29.0384
 11
26.7346
 21
29.1522
  0
LINE
  8
0
 10
26.7346
 20
29.1522
 11
26.3889
 21
29.3371
  0
LINE
  8
0
 10
26.3889
 20
29.3371
 11
26.0858
 21
29.5858
  0
LINE
  8
0
 10
26.0858
 20
29.5858
 11
25.8371
 21
29.8889
  0
LINE
  8
0
 10
25.8371
 20
29.8889
 11
25.6522
 21
30.2346
  0
LINE
  8
0
 10
25.6522
 20
30.2346
 11
25.5384
 21
30.6098
  0
LINE
  8
0
 10
25.5384
 20
30.6098
 11
25.5
 21
31
  0
LINE
  8
0
 10
25.5
 20
31
 11
25.5384
 21
31.3902
  0
LINE
  8
0
 10
25.5384
 20
31.3902
 11
25.6522
 21
31.7654
  0
LINE
  8
0
 10
25.6522
 20
31.7654
 11
25.8371
 21
32.1111
  0
LINE
  8
0
 10
25.8371
 20
32.1111
 11
26.0858
 21
32.4142
  0
LINE
  8
0
 10
26.0858
 20
32.4142
 11
26.3889
 21
32.6629
  0
LINE
  8
0
 10
26.3889
 20
32.6629
 11
26.7346
 21
32.8477
  0
LINE
  8
0
 10
26.7346
 20
32.8477
 11
27.1098
 21
32.9616
  0
LINE
  8
0
 10
27.1098
 20
32.9616
 11
27.5
 21
33
  0
LINE
  8
0
 10
27.5
 20
33
 11
27.8902
 21
32.9616
  0
LINE
  8
0
 10
27.8902
 20
32.9616
 11
28.2654
 21
32.8477
  0
LINE
  8
0
 10
28.2654
 20
32.8477
 11
28.6111
 21
32.6629
  0
LINE
  8
0
 10
28.6111
 20
32.6629
 11
28.9142
 21
32.4142
  0
LINE
  8
0
 10
28.9142
 20
32.4142
 11
29.1629
 21
32.1111
  0
LINE
  8
0
 10
29.1629
 20
32.1111
 11
29.3477
 21
31.7654
  0
LINE
  8
0
 10
29.3477
 20
31.7654
 11
29.4616
 21
31.3902
  0
LINE
  8
0
 10
29.4616
 20
31.3902
 11
29.5
 21
31
  0
LINE
  8
0
 10
29.5
 20
31
 11
29.4616
 21
30.6098
  0
LINE
  8
0
 10
29.4616
 20
30.6098
 11
29.3477
 21
30.2346
  0
LINE
  8
0
 10
29.3477
 20
30.2346
 11
29.1629
 21
29.8889
  0
LINE
  8
0
 10
29.1629
 20
29.8889
 11
28.9142
 21
29.5858
  0
LINE
  8
0
 10
28.9142
 20
29.5858
 11
28.6111
 21
29.3371
  0
LINE
  8
0
 10
28.6111
 20
29.3371
 11
28.2654
 21
29.1522
  0
LINE
  8
0
 10
28.2654
 20
29.1522
 11
27.8902
 21
29.0384
  0
LINE
  8
0
 10
27.8902
 20
29.0384
 11
27.5
 21
29
  0
LINE
  8
0
 10
27.5
 20
29
 11
27.1098
 21
29.0384
  0
LINE
  8
0
 10
27.1098
 20
9.03842
 11
26.7346
 21
9.15224
  0
LINE
  8
0
 10
26.7346
 20
9.15224
 11
26.3889
 21
9.33705
  0
LINE
  8
0
 10
26.3889
 20
9.33705
 11
26.0858
 21
9.58578
  0
LINE
  8
0
 10
26.0858
 20
9.58578
 11
25.8371
 21
9.88885
  0
LINE
  8
0
 10
25.8371
 20
9.88885
 11
25.6522
 21
10.2346
  0
LINE
  8
0
 10
25.6522
 20
10.2346
 11
25.5384
 21
10.6098
  0
LINE
  8
0
 10
25.5384
 20
10.6098
 11
25.5
 21
11
  0
LINE
  8
0
 10
25.5
 20
11
 11
25.5384
 21
11.3902
  0
LINE
  8
0
 10
25.5384
 20
11.3902
 11
25.6522
 21
11.7654
  0
LINE
  8
0
 10
25.6522
 20
11.7654
 11
25.8371
 21
12.1111
  0
LINE
  8
0
 10
25.8371
 20
12.1111
 11
26.0858
 21
12.4142
  0
LINE
  8
0
 10
26.0858
 20
12.4142
 11
26.3889
 21
12.6629
  0
LINE
  8
0
 10
26.3889
 20
12.6629
 11
26.7346
 21
12.8477
  0
LINE
  8
0
 10
26.7346
 20
12.8477
 11
27.1098
 21
12.9616
  0
LINE
  8
0
 10
27.1098
 20
12.9616
 11
27.5
 21
13
  0
LINE
  8
0
 10
27.5
 20
13
 11
27.8902
 21
12.9616
  0
LINE
  8
0
 10
27.8902
 20
12.9616
 11
28.2654
 21
12.8477
  0
LINE
  8
0
 10
28.2654
 20
12.8477
 11
28.6111
 21
12.6629
  0
LINE
  8
0
 10
28.6111
 20
12.6629
 11
28.9142
 21
12.4142
  0
LINE
  8
0
 10
28.9142
 20
12.4142
 11
29.1629
 21
12.1111
  0
LINE
  8
0
 10
29.1629
 20
12.1111
 11
29.3477
 21
11.7654
  0
LINE
  8
0
 10
29.3477
 20
11.7654
 11
29.4616
 21
11.3902
  0
LINE
  8
0
 10
29.4616
 20
11.3902
 11
29.5
 21
11
  0
LINE
  8
0
 10
29.5
 20
11
 11
29.4616
 21
10.6098
  0
LINE
  8
0
 10
29.4616
 20
10.6098
 11
29.3477
 21
10.2346
  0
LINE
  8
0
 10
29.3477
 20
10.2346
 11
29.1629
 21
9.88885
  0
LINE
  8
0
 10
29.1629
 20
9.88885
 11
28.9142
 21
9.58578
  0
LINE
  8
0
 10
28.9142
 20
9.58578
 11
28.6111
 21
9.33705
  0
LINE
  8
0
 10
28.6111
 20
9.33705
 11
28.2654
 21
9.15224
  0
LINE
  8
0
 10
28.2654
 20
9.15224
 11
27.8902
 21
9.03842
  0
LINE
  8
0
 10
27.8902
 20
9.03842
 11
27.5
 21
9
  0
LINE
  8
0
 10
27.5
 20
9
 11
27.1098
 21
9.03842
  0
LINE
  8
0
 10
27.1098
 20
-6.96156
 11
26.7346
 21
-6.84775
  0
LINE
  8
0
 10
26.7346
 20
-6.84775
 11
26.3889
 21
-6.66293
  0
LINE
  8
0
 10
26.3889
 20
-6.66293
 11
26.0858
 21
-6.4142
  0
LINE
  8
0
 10
26.0858
 20
-6.4142
 11
25.8371
 21
-6.11113
  0
LINE
  8
0
 10
25.8371
 20
-6.11113
 11
25.6522
 21
-5.76537
  0
LINE
  8
0
 10
25.6522
 20
-5.76537
 11
25.5384
 21
-5.39017
  0
LINE
  8
0
 10
25.5384
 20
-5.39017
 11
25.5
 21
-5
  0
LINE
  8
0
 10
25.5
 20
-5
 11
25.5384
 21
-4.60982
  0
LINE
  8
0
 10
25.5384
 20
-4.60982
 11
25.6522
 21
-4.23462
  0
LINE
  8
0
 10
25.6522
 20
-4.23462
 11
25.8371
 21
-3.88885
  0
LINE
  8
0
 10
25.8371
 20
-3.88885
 11
26.0858
 21
-3.58578
  0
LINE
  8
0
 10
26.0858
 20
-3.58578
 11
26.3889
 21
-3.33705
  0
LINE
  8
0
 10
26.3889
 20
-3.33705
 11
26.7346
 21
-3.15224
  0
LINE
  8
0
 10
26.7346
 20
-3.15224
 11
27.1098
 21
-3.03842
  0
LINE
  8
0
 10
27.1098
 20
-3.03842
 11
27.5
 21
-3
  0
LINE
  8
0
 10
27.5
 20
-3
 11
27.8902
 21
-3.03842
  0
LINE
  8
0
 10
27.8902
 20
-3.03842
 11
28.2654
 21
-3.15224
  0
LINE
  8
0
 10
28.2654
 20
-3.15224
 11
28.6111
 21
-3.33705
  0
LINE
  8
0
 10
28.6111
 20
-3.33705
 11
28.9142
 21
-3.58578
  0
LINE
  8
0
 10
28.9142
 20
-3.58578
 11
29.1629
 21
-3.88885
  0
LINE
  8
0
 10
29.1629
 20
-3.88885
 11
29.3477
 21
-4.23462
  0
LINE
  8
0
 10
29.3477
 20
-4.23462
 11
29.4616
 21
-4.60982
  0
LINE
  8
0
 10
29.4616
 20
-4.60982
 11
29.5
 21
-5
  0
LINE
  8
0
 10
29.5
 20
-5
 11
29.4616
 21
-5.39017
  0
LINE
  8
0
 10
29.4616
 20
-5.39017
 11
29.3477
 21
-5.76537
  0
LINE
  8
0
 10
29.3477
 20
-5.76537
 11
29.1629
 21
-6.11113
  0
LINE
  8
0
 10
29.1629
 20
-6.11113
 11
28.9142
 21
-6.4142
  0
LINE
  8
0
 10
28.9142
 20
-6.4142
 11
28.6111
 21
-6.66293
  0
LINE
  8
0
 10
28.6111
 20
-6.66293
 11
28.2654
 21
-6.84775
  0
LINE
  8
0
 10
28.2654
 20
-6.84775
 11
27.8902
 21
-6.96156
  0
LINE
  8
0
 10
27.8902
 20
-6.96156
 11
27.5
 21
-7
  0
LINE
  8
0
 10
27.5
 20
-7
 11
27.1098
 21
-6.96156
  0
LINE
  8
0
 10
-4.39017
 20
-6.96156
 11
-4.76537
 21
-6.84775
  0
LINE
  8
0
 10
-4.76537
 20
-6.84775
 11
-5.11113
 21
-6.66293
  0
LINE
  8
0
 10
-5.11113
 20
-6.66293
 11
-5.4142
 21
-6.4142
  0
LINE
  8
0
 10
-5.4142
 20
-6.4142
 11
-5.66293
 21
-6.11113
  0
LINE
  8
0
 10
-5.66293
 20
-6.11113
 11
-5.84775
 21
-5.76537
  0
LINE
  8
0
 10
-5.84775
 20
-5.76537
 11
-5.96156
 21
-5.39017
  0
LINE
  8
0
 10
-5.96156
 20
-5.39017
 11
-6
 21
-5
  0
LINE
  8
0
 10
-6
 20
-5
 11
-5.96156
 21
-4.60982
  0
LINE
  8
0
 10
-5.96156
 20
-4.60982
 11
-5.84775
 21
-4.23462
  0
LINE
  8
0
 10
-5.84775
 20
-4.23462
 11
-5.66293
 21
-3.88885
  0
LINE
  8
0
 10
-5.66293
 20
-3.88885
 11
-5.4142
 21
-3.58578
  0
LINE
  8
0
 10
-5.4142
 20
-3.58578
 11
-5.11113
 21
-3.33705
  0
LINE
  8
0
 10
-5.11113
 20
-3.33705
 11
-4.76537
 21
-3.15224
  0
LINE
  8
0
 10
-4.76537
 20
-3.15224
 11
-4.39017
 21
-3.03842
  0
LINE
  8
0
 10
-4.39017
 20
-3.03842
 11
-4
 21
-3
  0
LINE
  8
0
 10
-4
 20
-3
 11
-3.60982
 21
-3.03842
  0
LINE
  8
0
 10
-3.60982
 20
-3.03842
 11
-3.23462
 21
-3.15224
  0
LINE
  8
0
 10
-3.23462
 20
-3.15224
 11
-2.88885
 21
-3.33705
  0
LINE
  8
0
 10
-2.88885
 20
-3.33705
 11
-2.58578
 21
-3.58578
  0
LINE
  8
0
 10
-2.58578
 20
-3.58578
 11
-2.33705
 21
-3.88885
  0
LINE
  8
0
 10
-2.33705
 20
-3.88885
 11
-2.15224
 21
-4.23462
  0
LINE
  8
0
 10
-2.15224
 20
-4.23462
 11
-2.03842
 21
-4.60982
  0
LINE
  8
0
 10
-2.03842
 20
-4.60982
 11
-2
 21
-5
  0
LINE
  8
0
 10
-2
 20
-5
 11
-2.03842
 21
-5.39017
  0
LINE
  8
0
 10
-2.03842
 20
-5.39017
 11
-2.15224
 21
-5.76537
  0
LINE
  8
0
 10
-2.15224
 20
-5.76537
 11
-2.33705
 21
-6.11113
  0
LINE
  8
0
 10
-2.33705
 20
-6.11113
 11
-2.58578
 21
-6.4142
  0
LINE
  8
0
 10
-2.58578
 20
-6.4142
 11
-2.88885
 21
-6.66293
  0
LINE
  8
0
 10
-2.88885
 20
-6.66293
 11
-3.23462
 21
-6.84775
  0
LINE
  8
0
 10
-3.23462
 20
-6.84775
 11
-3.60982
 21
-6.96156
  0
LINE
  8
0
 10
-3.60982
 20
-6.96156
 11
-4
 21
-7
  0
LINE
  8
0
 10
-4
 20
-7
 11
-4.39017
 21
-6.96156
  0
ENDSEC
  0
SECTION
  2
OBJECTS
  0
DICTIONARY
  0
ENDSEC
  0
EOF
