  0
SECTION
  2
BLOCKS
  0
ENDSEC
  0
SECTION
  2
ENTITIES
  0
LINE
  8
0
 10
30
 20
2.45
 11
0
 21
2.45
  0
LINE
  8
0
 10
0
 20
2.45
 11
0
 21
-49.55
  0
LINE
  8
0
 10
0
 20
-49.55
 11
30
 21
-49.55
  0
LINE
  8
0
 10
30
 20
-49.55
 11
30
 21
2.45
  0
LINE
  8
0
 10
3.60982
 20
-27.9616
 11
3.23462
 21
-27.8477
  0
LINE
  8
0
 10
3.23462
 20
-27.8477
 11
2.88885
 21
-27.6629
  0
LINE
  8
0
 10
2.88885
 20
-27.6629
 11
2.58578
 21
-27.4142
  0
LINE
  8
0
 10
2.58578
 20
-27.4142
 11
2.33705
 21
-27.1111
  0
LINE
  8
0
 10
2.33705
 20
-27.1111
 11
2.15224
 21
-26.7654
  0
LINE
  8
0
 10
2.15224
 20
-26.7654
 11
2.03842
 21
-26.3902
  0
LINE
  8
0
 10
2.03842
 20
-26.3902
 11
2
 21
-26
  0
LINE
  8
0
 10
2
 20
-26
 11
2.03842
 21
-25.6098
  0
LINE
  8
0
 10
2.03842
 20
-25.6098
 11
2.15224
 21
-25.2346
  0
LINE
  8
0
 10
2.15224
 20
-25.2346
 11
2.33705
 21
-24.8889
  0
LINE
  8
0
 10
2.33705
 20
-24.8889
 11
2.58578
 21
-24.5858
  0
LINE
  8
0
 10
2.58578
 20
-24.5858
 11
2.88885
 21
-24.3371
  0
LINE
  8
0
 10
2.88885
 20
-24.3371
 11
3.23462
 21
-24.1522
  0
LINE
  8
0
 10
3.23462
 20
-24.1522
 11
3.60982
 21
-24.0384
  0
LINE
  8
0
 10
3.60982
 20
-24.0384
 11
4
 21
-24
  0
LINE
  8
0
 10
4
 20
-24
 11
4.39017
 21
-24.0384
  0
LINE
  8
0
 10
4.39017
 20
-24.0384
 11
4.76537
 21
-24.1522
  0
LINE
  8
0
 10
4.76537
 20
-24.1522
 11
5
 21
-24.2776
  0
LINE
  8
0
 10
5
 20
-24.2776
 11
5
 21
-27.7223
  0
LINE
  8
0
 10
5
 20
-27.7223
 11
4.76537
 21
-27.8477
  0
LINE
  8
0
 10
4.76537
 20
-27.8477
 11
4.39017
 21
-27.9616
  0
LINE
  8
0
 10
4.39017
 20
-27.9616
 11
4
 21
-28
  0
LINE
  8
0
 10
4
 20
-28
 11
3.60982
 21
-27.9616
  0
LINE
  8
0
 10
25.6098
 20
-27.9616
 11
25.2346
 21
-27.8477
  0
LINE
  8
0
 10
25.2346
 20
-27.8477
 11
24.8889
 21
-27.6629
  0
LINE
  8
0
 10
24.8889
 20
-27.6629
 11
24.5858
 21
-27.4142
  0
LINE
  8
0
 10
24.5858
 20
-27.4142
 11
24.3371
 21
-27.1111
  0
LINE
  8
0
 10
24.3371
 20
-27.1111
 11
24.1522
 21
-26.7654
  0
LINE
  8
0
 10
24.1522
 20
-26.7654
 11
24.0384
 21
-26.3902
  0
LINE
  8
0
 10
24.0384
 20
-26.3902
 11
24
 21
-26
  0
LINE
  8
0
 10
24
 20
-26
 11
24.0384
 21
-25.6098
  0
LINE
  8
0
 10
24.0384
 20
-25.6098
 11
24.1522
 21
-25.2346
  0
LINE
  8
0
 10
24.1522
 20
-25.2346
 11
24.3371
 21
-24.8889
  0
LINE
  8
0
 10
24.3371
 20
-24.8889
 11
24.5858
 21
-24.5858
  0
LINE
  8
0
 10
24.5858
 20
-24.5858
 11
24.8889
 21
-24.3371
  0
LINE
  8
0
 10
24.8889
 20
-24.3371
 11
25.2346
 21
-24.1522
  0
LINE
  8
0
 10
25.2346
 20
-24.1522
 11
25.6098
 21
-24.0384
  0
LINE
  8
0
 10
25.6098
 20
-24.0384
 11
26
 21
-24
  0
LINE
  8
0
 10
26
 20
-24
 11
26.3902
 21
-24.0384
  0
LINE
  8
0
 10
26.3902
 20
-24.0384
 11
26.7654
 21
-24.1522
  0
LINE
  8
0
 10
26.7654
 20
-24.1522
 11
27.1111
 21
-24.3371
  0
LINE
  8
0
 10
27.1111
 20
-24.3371
 11
27.4142
 21
-24.5858
  0
LINE
  8
0
 10
27.4142
 20
-24.5858
 11
27.6629
 21
-24.8889
  0
LINE
  8
0
 10
27.6629
 20
-24.8889
 11
27.8477
 21
-25.2346
  0
LINE
  8
0
 10
27.8477
 20
-25.2346
 11
27.9616
 21
-25.6098
  0
LINE
  8
0
 10
27.9616
 20
-25.6098
 11
28
 21
-26
  0
LINE
  8
0
 10
28
 20
-26
 11
27.9616
 21
-26.3902
  0
LINE
  8
0
 10
27.9616
 20
-26.3902
 11
27.8477
 21
-26.7654
  0
LINE
  8
0
 10
27.8477
 20
-26.7654
 11
27.6629
 21
-27.1111
  0
LINE
  8
0
 10
27.6629
 20
-27.1111
 11
27.4142
 21
-27.4142
  0
LINE
  8
0
 10
27.4142
 20
-27.4142
 11
27.1111
 21
-27.6629
  0
LINE
  8
0
 10
27.1111
 20
-27.6629
 11
26.7654
 21
-27.8477
  0
LINE
  8
0
 10
26.7654
 20
-27.8477
 11
26.3902
 21
-27.9616
  0
LINE
  8
0
 10
26.3902
 20
-27.9616
 11
26
 21
-28
  0
LINE
  8
0
 10
26
 20
-28
 11
25.6098
 21
-27.9616
  0
ENDSEC
  0
SECTION
  2
OBJECTS
  0
DICTIONARY
  0
ENDSEC
  0
EOF
